<?xml version="1.0" encoding="UTF-8"?>
<svg version="1.1" xmlns="http://www.w3.org/2000/svg" width="527" height="474">
<path d="M0 0 C6.04571761 1.79514482 11.66353402 4.48667465 17.375 7.125 C18.44484131 7.61709961 19.51468262 8.10919922 20.61694336 8.61621094 C27.29887616 11.70566892 33.9170819 14.89540021 40.48291016 18.22338867 C49.69239747 22.88791867 59.07668927 27.15684918 68.5144043 31.3359375 C71.92787997 32.85800353 75.32401649 34.41689054 78.72021484 35.97705078 C80.69554065 36.8633878 82.69930904 37.68581176 84.70703125 38.49609375 C95.47857251 43.30225908 100.82964222 52.38723209 107 62 C107.64324219 62.98484375 108.28648438 63.9696875 108.94921875 64.984375 C110.02609047 66.66356481 111.08992291 68.35118746 112.140625 70.046875 C114.62702361 73.99586103 117.21857907 77.8710619 119.8125 81.75 C120.33062256 82.52512939 120.84874512 83.30025879 121.38256836 84.09887695 C122.42317529 85.65484135 123.46410717 87.21058848 124.50537109 88.76611328 C126.71617617 92.07040378 128.92060331 95.37893245 131.125 98.6875 C131.94006671 99.91018122 132.75517067 101.13283761 133.5703125 102.35546875 C151.03515625 128.55273438 151.03515625 128.55273438 168.5 154.75 C168.9127417 155.36907227 169.3254834 155.98814453 169.75073242 156.62597656 C170.58177468 157.87262115 171.41266727 159.11936553 172.2434082 160.36621094 C174.36056198 163.54339484 176.48050505 166.71865827 178.60546875 169.890625 C179.46632054 171.17696643 180.32699963 172.46342346 181.1875 173.75 C181.81023804 174.68054199 181.81023804 174.68054199 182.44555664 175.62988281 C185.56431065 180.30646159 188.57671345 185.04331911 191.52734375 189.828125 C192.87262327 191.81214467 194.24078296 193.3825706 196 195 C197.32 192.69 198.64 190.38 200 188 C200.66 188 201.32 188 202 188 C202.24363281 187.31164062 202.48726562 186.62328125 202.73828125 185.9140625 C204.22024956 182.49131216 206.14267277 179.47696432 208.1875 176.375 C208.7755542 175.45412598 208.7755542 175.45412598 209.37548828 174.51464844 C211.26260364 171.57132889 213.1835167 168.7625078 215.32421875 165.9921875 C217.3050464 163.34353796 218.88820199 161.11776547 220 158 C219.28654718 155.11437872 218.10421863 153.12694594 216.4921875 150.63671875 C213.93068157 146.11049753 213.58754207 141.1037237 213 136 C212.16855469 135.87882813 211.33710938 135.75765625 210.48046875 135.6328125 C208.85044922 135.38144531 208.85044922 135.38144531 207.1875 135.125 C205.56908203 134.88136719 205.56908203 134.88136719 203.91796875 134.6328125 C201 134 201 134 198 132 C198 131.01 198 130.02 198 129 C198.73605469 128.90203125 199.47210938 128.8040625 200.23046875 128.703125 C207.94755567 127.60812958 207.94755567 127.60812958 214 123 C218.75961207 116.34212622 221.2873549 110.88552951 221.3125 102.5625 C221.33763672 100.64630859 221.33763672 100.64630859 221.36328125 98.69140625 C220.72097669 92.16476318 217.8346923 88.2591337 213 84 C206.41602617 79.39121832 199.16240763 79.15255658 191.40625 80.42578125 C185.07443068 81.98012846 181.4231419 84.42243313 178 90 C175.44558748 95.45715403 174.95335779 100.93743388 176.8984375 106.62890625 C177.61117187 108.36524848 178.35176031 110.09052542 179.125 111.80078125 C180 114 180 114 180 117 C176.66227007 115.59844241 174.98250943 114.0490314 172.875 111.125 C172.37742188 110.44695312 171.87984375 109.76890625 171.3671875 109.0703125 C166.96674912 102.40679153 167.24958214 95.75695096 168 88 C170.30377789 79.87784352 175.65038785 74.03216883 182.9296875 69.90625 C186.18466421 68.39750543 188.36621679 68 192 68 C192 67.34 192 66.68 192 66 C179.20432916 62.01446318 166.19667672 58.37972859 153 56 C153.140625 54.1640625 153.140625 54.1640625 154 52 C172.37086789 41.54362551 195.64756082 43.88534023 215.26171875 49.08984375 C218.52712487 49.9985764 221.76857921 50.97654358 225 52 C225 51.34 225 50.68 225 50 C224.13955078 49.60941406 224.13955078 49.60941406 223.26171875 49.2109375 C209.0833183 41.61973864 200.14316419 25.45070487 195.625 10.625 C193.60616438 3.67465753 193.60616438 3.67465753 195 0 C196.11979242 1.11979242 197.23889873 2.24027567 198.35546875 3.36328125 C199.5980685 4.59997791 200.85283833 5.82446294 202.11328125 7.04296875 C202.83902344 7.75066406 203.56476563 8.45835938 204.3125 9.1875 C205.00988281 9.86167969 205.70726562 10.53585938 206.42578125 11.23046875 C208 13 208 13 208 15 C208.639375 15.268125 209.27875 15.53625 209.9375 15.8125 C212 17 212 17 213 20 C214.31658873 20.69915402 215.65455981 21.35811767 217 22 C218.95786168 23.49452933 220.89268443 25.01940296 222.8125 26.5625 C227.68058201 30.39505937 232.68189984 33.82097983 238 37 C238.62237549 37.37326416 239.24475098 37.74652832 239.88598633 38.13110352 C243.16948287 40.0565256 246.42182147 41.69884417 250 43 C249.86722656 42.45472656 249.73445312 41.90945312 249.59765625 41.34765625 C246.27710843 27.1686747 246.27710843 27.1686747 248 22 C252.043349 23.347783 252.51615837 25.154571 254.625 28.8125 C258.08784198 34.69179275 261.92068582 40.05321506 266.1171875 45.44140625 C267.69820989 47.58989103 268.91584289 49.57491173 270 52 C270.66 52 271.32 52 272 52 C272 52.66 272 53.32 272 54 C272.71414063 54.10054687 273.42828125 54.20109375 274.1640625 54.3046875 C282.41716432 56.32817527 289.49831478 62.75080321 295 69 C296.2065625 70.36125 296.2065625 70.36125 297.4375 71.75 C299 74 299 74 299 77 C299.66 77 300.32 77 301 77 C302.26171875 78.5390625 302.26171875 78.5390625 303.6875 80.625 C305.82600527 83.63786949 307.81598876 85.72934997 310.8125 87.875 C312.62890625 89.30078125 312.62890625 89.30078125 314 91 C314.27734375 93.41796875 314.27734375 93.41796875 314.25 96.0625 C314.17525787 98.647562 314.17525787 98.647562 315 101 C318.42168509 103.4118314 322.0213702 104.75462988 326 106 C326 106.66 326 107.32 326 108 C326.61488281 108.07476562 327.22976563 108.14953125 327.86328125 108.2265625 C330.36077265 108.63285297 332.62567912 109.12030557 335 110 C336.5625 112.5 336.5625 112.5 338 116 C339.3240919 117.64959783 340.68184029 119.27244855 342.0625 120.875 C345.68728845 125.34245145 347.53488079 128.23252179 348 134 C347.00933705 138.96240342 345.07725582 142.88209849 341 146 C338.24794118 147.44483088 336.77295357 148.12534382 333.6875 147.625 C333.130625 147.41875 332.57375 147.2125 332 147 C332.350625 146.484375 332.70125 145.96875 333.0625 145.4375 C334.35594374 142.07454628 333.58411793 139.50062286 333 136 C324.19421143 133.81157917 316.08009321 132.5509844 307 133 C306.88785156 132.11248047 306.88785156 132.11248047 306.7734375 131.20703125 C306.04522338 126.8306072 305.47127589 124.50493846 302.375 121.1875 C301.27695619 120.41833888 300.14958721 119.68975233 299 119 C298.39929688 118.63132812 297.79859375 118.26265625 297.1796875 117.8828125 C292.1517938 115.09406174 286.77344565 113.25980505 281 113 C277.45984528 114.18021764 277.45984528 114.18021764 275 116 C273.71816969 127.10919601 280.59587911 135.80923677 287.00390625 144.30078125 C289.56379196 147.76238795 291.82544142 151.37243911 294.109375 155.01953125 C296.22911811 158.36119239 298.42031947 161.65167386 300.625 164.9375 C304.81881482 171.19811914 308.95279565 177.49636065 313.0625 183.8125 C313.92125732 185.13012329 313.92125732 185.13012329 314.79736328 186.47436523 C315.5956958 187.70328491 315.5956958 187.70328491 316.41015625 188.95703125 C316.88590088 189.68897705 317.36164551 190.42092285 317.85180664 191.17504883 C319 193 319 193 320 195 C320.66 195 321.32 195 322 195 C323.32 192.69 324.64 190.38 326 188 C326.66 188 327.32 188 328 188 C328.268125 187.28457031 328.53625 186.56914062 328.8125 185.83203125 C330.01731307 182.95871061 331.41237112 180.36662374 333 177.6875 C333.515625 176.80449219 334.03125 175.92148438 334.5625 175.01171875 C335.036875 174.34785156 335.51125 173.68398437 336 173 C336.66 173 337.32 173 338 173 C338.23589844 172.31808594 338.47179687 171.63617188 338.71484375 170.93359375 C340.28024741 167.36028631 342.36346576 164.26442712 344.5625 161.0625 C345.47105723 159.72073215 346.37858766 158.37826852 347.28515625 157.03515625 C347.74164551 156.35984863 348.19813477 155.68454102 348.66845703 154.98876953 C350.65601069 152.02019379 352.58013981 149.01262433 354.5 146 C358.82234385 139.23691541 363.26634832 132.55890144 367.73388672 125.89111328 C369.82750047 122.76401492 371.9133799 119.63176732 374 116.5 C374.83329577 115.24997496 375.66662911 113.99997496 376.5 112.75 C376.9125 112.13125 377.325 111.5125 377.75 110.875 C385.66666667 99 393.58333333 87.125 401.5 75.25 C401.91282227 74.63060547 402.32564453 74.01121094 402.75097656 73.37304688 C403.58045329 72.12915605 404.41052695 70.88566306 405.24121094 69.64257812 C407.38873812 66.42719179 409.52395292 63.2045462 411.640625 59.96875 C412.07761719 59.30423828 412.51460938 58.63972656 412.96484375 57.95507812 C413.78910237 56.70115278 414.60974804 55.44484065 415.42578125 54.18554688 C416.58297003 52.43015034 417.77869234 50.71133552 419 49 C419.41056641 48.40421143 419.82113281 47.80842285 420.24414062 47.19458008 C424.46807383 41.62536343 429.6711405 39.36715529 436 36.6875 C437.05509766 36.22239014 438.11019531 35.75728027 439.19726562 35.27807617 C441.38503075 34.31366359 443.57582547 33.35609562 445.76953125 32.40527344 C450.70311423 30.25913501 455.60226853 28.03897712 460.5 25.8125 C461.41249512 25.39967773 462.32499023 24.98685547 463.26513672 24.56152344 C469.25533136 21.83821452 475.14808372 18.96433144 481.01000977 15.97680664 C489.52588318 11.66928935 498.27613465 7.86283299 507 4 C508.69932409 3.24502873 510.39854702 2.4898297 512.09765625 1.734375 C513.3984375 1.15625 514.69921875 0.578125 516 0 C515.50960931 4.73814108 514.35807017 7.38712742 511.4375 11.125 C508.56264827 14.91226035 505.80276455 18.71597222 503.1875 22.6875 C500.13600322 27.30918445 497.02488393 31.88281548 493.875 36.4375 C487.65485104 45.44625734 481.59719817 54.56202156 475.54052734 63.68115234 C473.57219163 66.64394991 471.59898409 69.60346294 469.625 72.5625 C469.01785156 73.47386719 468.41070312 74.38523437 467.78515625 75.32421875 C466.54534595 77.18257774 465.30297337 79.03922883 464.05859375 80.89453125 C463.39988281 81.87808594 462.74117188 82.86164063 462.0625 83.875 C461.41152344 84.84695312 460.76054687 85.81890625 460.08984375 86.8203125 C458.55486934 89.15576889 457.04967105 91.49934262 455.56640625 93.8671875 C455.15962646 94.51316895 454.75284668 95.15915039 454.33374023 95.82470703 C453.53932366 97.09006133 452.75087586 98.3591863 451.96899414 99.63232422 C451.03177658 101.1225191 450.02201606 102.56663308 449 104 C448.34 104 447.68 104 447 104 C446.64421875 105.02480469 446.64421875 105.02480469 446.28125 106.0703125 C444.73034005 109.61660048 442.67764324 112.69504883 440.5 115.875 C439.6053729 117.199154 438.71084472 118.52337483 437.81640625 119.84765625 C437.35508301 120.52715332 436.89375977 121.20665039 436.41845703 121.90673828 C434.07533775 125.36455321 431.75638597 128.83840877 429.4375 132.3125 C429.00824219 132.9523584 428.57898438 133.5922168 428.13671875 134.25146484 C425.92460976 137.54028073 425.92460976 137.54028073 424 141 C423.34 141 422.68 141 422 141 C421.88084229 141.58845703 421.76168457 142.17691406 421.63891602 142.78320312 C420.97678568 145.08054492 420.14992892 146.52532462 418.77734375 148.46875 C418.32504395 149.11650391 417.87274414 149.76425781 417.40673828 150.43164062 C416.92188965 151.11419922 416.43704102 151.79675781 415.9375 152.5 C414.93294183 153.9370445 413.92904084 155.37454861 412.92578125 156.8125 C412.18062256 157.87597656 412.18062256 157.87597656 411.42041016 158.9609375 C407.14012355 165.10548094 402.98460169 171.33229021 399.125 177.75 C398.42375 178.8225 397.7225 179.895 397 181 C396.34 181 395.68 181 395 181 C394.74605469 181.88300781 394.49210937 182.76601562 394.23046875 183.67578125 C392.97284492 187.07336181 391.5133554 189.32941469 389.3125 192.1875 C386.66423331 195.72009861 384.14454982 199.25122991 381.8125 203 C378.04505666 209.02102816 374.02188878 214.8550469 369.99853516 220.70629883 C364.92566973 228.08935276 359.94564017 235.53130187 355 243 C359.56801499 250.89189582 364.57522605 258.4534113 369.66357422 266.01367188 C372.72096395 270.55786676 375.76676041 275.10949542 378.78515625 279.6796875 C380.09515642 281.64353255 381.42774768 283.59311881 382.80859375 285.5078125 C384.25 287.5625 384.25 287.5625 386 291 C384.92550873 295.82177959 382.53199482 299.56193176 379.75 303.5625 C378.85633442 304.87470289 377.96313357 306.18722236 377.0703125 307.5 C376.58336914 308.2115625 376.09642578 308.923125 375.59472656 309.65625 C372.57000156 314.1016511 369.60265004 318.58549632 366.625 323.0625 C364.90957882 325.63632909 363.19403338 328.20994602 361.46972656 330.77783203 C360.55886809 332.15501374 359.66628275 333.54470828 358.80371094 334.95263672 C357.7734375 336.62109375 357.7734375 336.62109375 356 339 C355.01 339 354.02 339 353 339 C351.61328125 337.3203125 351.61328125 337.3203125 350.3125 335.125 C349.87550781 334.40570313 349.43851562 333.68640625 348.98828125 332.9453125 C348 331 348 331 348 329 C347.34 329 346.68 329 346 329 C344.625 327.12109375 344.625 327.12109375 343 324.4375 C340.84368099 320.9346189 338.66433576 317.47223096 336.3515625 314.0703125 C335.67480469 313.07366577 335.67480469 313.07366577 334.984375 312.05688477 C334.08999157 310.74470476 333.19165411 309.43520965 332.2890625 308.12866211 C330.23584391 305.10056571 328.74268628 302.57764538 328 299 C327.34 299 326.68 299 326 299 C324.5546875 297.015625 324.5546875 297.015625 322.875 294.25 C320.37274367 290.20511553 317.83459157 286.20184461 315.1875 282.25 C314.52234375 281.25613281 313.8571875 280.26226562 313.171875 279.23828125 C312.45515625 278.16964844 311.7384375 277.10101563 311 276 C305.84414636 268.30966775 300.72627314 260.61035009 295.80078125 252.76953125 C294.43666602 250.67157529 293.04614601 248.61863 291.60546875 246.57421875 C291.19433838 245.99043457 290.78320801 245.40665039 290.35961914 244.80517578 C289.18585565 243.14839829 288.00331733 241.49784774 286.8203125 239.84765625 C285.26571132 237.41567286 284.41991807 235.81074192 284 233 C283.34 233 282.68 233 282 233 C280.625 231.12109375 280.625 231.12109375 279 228.4375 C276.06450672 223.68800669 273.04623735 219.01300732 269.9375 214.375 C269.51098145 213.73739746 269.08446289 213.09979492 268.64501953 212.44287109 C267.81470095 211.20203635 266.98398553 209.96146705 266.15283203 208.72119141 C264.55630978 206.33756543 262.96550795 203.95014196 261.375 201.5625 C260.90835937 200.86253906 260.44171875 200.16257813 259.9609375 199.44140625 C259.64382813 198.96574219 259.32671875 198.49007812 259 198 C256.25601917 201.34838189 253.75481242 204.7597105 251.375 208.375 C250.68535156 209.41914063 249.99570313 210.46328125 249.28515625 211.5390625 C248.91793457 212.09625977 248.55071289 212.65345703 248.17236328 213.22753906 C246.93282205 215.10156434 245.68436042 216.96938716 244.43359375 218.8359375 C244.00062988 219.48248291 243.56766602 220.12902832 243.12158203 220.79516602 C242.25438615 222.09013756 241.38687714 223.38489948 240.51904297 224.67944336 C238.26520143 228.05492116 236.08875942 231.45623431 234 234.9375 C233.34 235.948125 232.68 236.95875 232 238 C231.34 238 230.68 238 230 238 C229.61134766 239.33611328 229.61134766 239.33611328 229.21484375 240.69921875 C228.00792729 243.97846121 226.69318532 246.07051619 224.5625 248.8125 C221.04066383 253.50615869 217.78920482 258.30860856 214.625 263.25 C210.513925 269.66612862 206.34001363 276.03317026 202.08447266 282.35449219 C199.89847402 285.5915657 199.89847402 285.5915657 198 289 C197.34 289 196.68 289 196 289 C195.7628125 289.68320312 195.525625 290.36640625 195.28125 291.0703125 C193.73033484 294.61661241 191.67767066 297.69506808 189.5 300.875 C188.59362671 302.21606252 187.68738023 303.55721074 186.78125 304.8984375 C186.31847656 305.5800293 185.85570312 306.26162109 185.37890625 306.96386719 C183.23441561 310.13048403 181.1179078 313.31557135 179 316.5 C178.17983826 317.73056924 177.35952473 318.96103733 176.5390625 320.19140625 C175.92272949 321.11590576 175.92272949 321.11590576 175.29394531 322.05908203 C174.3922526 323.41162109 173.4905599 324.76416016 172.58886719 326.11669922 C171.87585449 327.18621826 171.87585449 327.18621826 171.1484375 328.27734375 C170.22395833 329.6640625 169.29947917 331.05078125 168.375 332.4375 C167.93671875 333.09492188 167.4984375 333.75234375 167.046875 334.4296875 C165.5234375 336.71484375 165.5234375 336.71484375 164 339 C161.63037079 338.62228749 160.33520777 338.36881633 158.69482422 336.56396484 C158.3185791 335.95246582 157.94233398 335.3409668 157.5546875 334.7109375 C157.12220703 334.02346436 156.68972656 333.33599121 156.24414062 332.62768555 C155.79232422 331.88429932 155.34050781 331.14091309 154.875 330.375 C153.90466524 328.82618379 152.93328843 327.27802 151.9609375 325.73046875 C151.47077148 324.94333496 150.98060547 324.15620117 150.47558594 323.34521484 C148.21362553 319.75017983 145.86264038 316.21687637 143.5 312.6875 C143.09120605 312.07245605 142.68241211 311.45741211 142.26123047 310.82373047 C140.64834642 308.40676537 139.03280723 306.04108098 137.21875 303.76953125 C136 302 136 302 136 299 C135.34 299 134.68 299 134 299 C132.0543742 296.47789249 130.92993408 294.92174102 131.17602539 291.68432617 C132.20481617 288.33275444 133.81013078 286.0763775 135.87109375 283.23828125 C136.69443331 282.08549306 137.51579104 280.93128754 138.33544922 279.77587891 C138.77008484 279.16504456 139.20472046 278.55421021 139.65252686 277.92486572 C141.99797449 274.57439319 144.23361622 271.15259115 146.47265625 267.73046875 C146.93102875 267.03116241 147.38940125 266.33185608 147.86166382 265.61135864 C149.26334725 263.47098789 150.66297126 261.3292801 152.0625 259.1875 C153.03304745 257.7049762 154.00374975 256.22255376 154.97460938 254.74023438 C157.31818583 251.16131754 159.65968782 247.58105216 162 244 C161.34 242.88625 160.68 241.7725 160 240.625 C158 237.25 158 237.25 158 235 C157.34 235 156.68 235 156 235 C155.48695313 234.0615625 154.97390625 233.123125 154.4453125 232.15625 C151.54212097 227.07885095 148.1934953 222.31158943 144.875 217.5 C143.52415423 215.53034924 142.17389491 213.56029615 140.82421875 211.58984375 C140.16856934 210.63319824 139.51291992 209.67655273 138.83740234 208.69091797 C135.23365354 203.41314501 131.70088012 198.08849446 128.16943359 192.76220703 C126.11823937 189.67128429 124.05854765 186.58602797 122 183.5 C121.16662914 182.25002502 120.33329574 181.00002506 119.5 179.75 C119.0875 179.13125 118.675 178.5125 118.25 177.875 C114.5 172.25 114.5 172.25 113.24975586 170.37451172 C112.4173866 169.12603913 111.58486734 167.87766652 110.75219727 166.62939453 C108.65286492 163.48183307 106.55626545 160.33251175 104.46484375 157.1796875 C103.6225011 155.91138841 102.7800539 154.64315876 101.9375 153.375 C101.52894775 152.75906982 101.12039551 152.14313965 100.69946289 151.50854492 C98.63918871 148.41425097 96.55148593 145.34471644 94.40625 142.30859375 C93.99125244 141.71965332 93.57625488 141.13071289 93.14868164 140.52392578 C92.0095938 138.91437009 90.86248383 137.31050026 89.71484375 135.70703125 C88.21861793 133.34510758 87.42306478 131.72714065 87 129 C86.34 129 85.68 129 85 129 C83.484375 126.91015625 83.484375 126.91015625 81.75 124.0625 C78.96734518 119.54724878 76.08595297 115.13715925 73.06640625 110.77734375 C72 109 72 109 72 107 C71.34 107 70.68 107 70 107 C68.625 105.12109375 68.625 105.12109375 67 102.4375 C66.06994141 100.93509766 66.06994141 100.93509766 65.12109375 99.40234375 C64.78190918 98.85433105 64.44272461 98.30631836 64.09326172 97.74169922 C62.13715636 94.62538488 60.10189957 91.56221889 58.0625 88.5 C57.6411377 87.86537842 57.21977539 87.23075684 56.78564453 86.5769043 C53.48721142 81.64442566 50.00929258 76.88168597 46.3984375 72.171875 C45 70 45 70 45 67 C44.34 67 43.68 67 43 67 C41.625 65.12109375 41.625 65.12109375 40 62.4375 C37.15602084 57.84247581 34.25242623 53.30465272 31.25 48.8125 C30.828396 48.18134277 30.40679199 47.55018555 29.97241211 46.89990234 C25.51418007 40.24634774 20.97226449 33.65077371 16.421875 27.06005859 C13.96523116 23.50079336 11.51377126 19.93796641 9.0625 16.375 C8.61398682 15.724104 8.16547363 15.07320801 7.70336914 14.40258789 C6.86107385 13.17865985 6.02118539 11.95307083 5.18408203 10.72558594 C4.39865135 9.58096242 3.60279002 8.44342261 2.79638672 7.31347656 C0 3.32564996 0 3.32564996 0 0 Z M266 67 C267 69 267 69 267 69 Z M267 69 C266.67 71.31 266.34 73.62 266 76 C263.69 76.33 261.38 76.66 259 77 C261.12774712 79.30592263 263.17209077 80.79825935 265.94140625 82.26171875 C266.68970703 82.65810547 267.43800781 83.05449219 268.20898438 83.46289062 C268.98564453 83.86701172 269.76230469 84.27113281 270.5625 84.6875 C271.73329102 85.31108398 271.73329102 85.31108398 272.92773438 85.94726562 C276.76750045 88.18578665 276.76750045 88.18578665 281 89 C278.04002156 80.65824257 274.16560741 74.26579219 267 69 Z M297 99 C297.63921965 101.47627099 297.63921965 101.47627099 299 104 C301.52372901 105.36078035 301.52372901 105.36078035 304 106 C304.66 105.34 305.32 104.68 306 104 C304.87926138 103.16094435 303.75325453 102.32892169 302.625 101.5 C301.99851562 101.0359375 301.37203125 100.571875 300.7265625 100.09375 C299.05905387 98.82161899 299.05905387 98.82161899 297 99 Z M224.5625 128.125 C221.99775746 132.84412627 221.86363101 136.63383604 221.875 142 C221.87242187 143.216875 221.86984375 144.43375 221.8671875 145.6875 C221.97383845 148.34750011 222.20692126 150.48228971 223 153 C223.66 153 224.32 153 225 153 C225.34756348 152.34080566 225.69512695 151.68161133 226.05322266 151.00244141 C229.8501092 143.90901387 234.0002733 137.12431739 238.375 130.375 C239.6347862 128.42575334 240.89271119 126.47530206 242.1484375 124.5234375 C242.69677246 123.67700684 243.24510742 122.83057617 243.81005859 121.95849609 C245.08654176 120.23950494 245.08654176 120.23950494 245 119 C235.40861825 117.93865858 230.44013878 120.58956566 224.5625 128.125 Z " fill="#060606" transform="translate(4,12)"/>
<path d="M0 0 C0.66 0 1.32 0 2 0 C2.01492913 17.81550578 2.01122686 35.63099701 2.00136471 53.44650364 C1.99995632 56.08172412 1.99872252 58.71694465 1.99750519 61.35216522 C1.98541911 86.29210923 1.94685258 111.23184738 1.86790657 136.17167473 C1.83305349 147.36504315 1.8078562 158.55828304 1.80444336 169.75170898 C1.80139017 179.69164529 1.78078677 189.63136758 1.73947543 199.57122117 C1.71840083 204.77854163 1.70541625 209.98555933 1.71384621 215.19292259 C1.77922222 263.51073222 1.77922222 263.51073222 -8.5625 283.8125 C-8.98523193 284.6694043 -9.40796387 285.52630859 -9.84350586 286.40917969 C-23.34600568 312.79117571 -45.98997705 330.90791587 -74 340 C-75.23621094 340.41636719 -76.47242188 340.83273437 -77.74609375 341.26171875 C-105.4307652 349.64221167 -136.65682948 343.9561044 -161.6875 330.5625 C-163.13323071 329.72233951 -164.57013492 328.86688684 -166 328 C-166.98742187 327.40703125 -167.97484375 326.8140625 -168.9921875 326.203125 C-174.84522005 322.59896755 -174.84522005 322.59896755 -177 321 C-177 320.34 -177 319.68 -177 319 C-177.55042969 318.76796875 -178.10085938 318.5359375 -178.66796875 318.296875 C-181.64451543 316.64157601 -183.85052612 314.60152353 -186.3125 312.25 C-187.66794922 310.98929687 -187.66794922 310.98929687 -189.05078125 309.703125 C-191 307 -191 307 -190.9375 303.96875 C-190.06006337 301.19020067 -189.07351878 298.80748357 -187.6875 296.25 C-185.99927396 293.1185271 -184.57089614 289.97690344 -183.27734375 286.66796875 C-180.67787447 280.07087262 -177.75069446 273.62332937 -174.82666016 267.16577148 C-173.86651995 265.04375817 -172.91161341 262.91944032 -171.95703125 260.79492188 C-171.34406111 259.43735948 -170.73079089 258.07993254 -170.1171875 256.72265625 C-169.83382538 256.09142349 -169.55046326 255.46019073 -169.2585144 254.80982971 C-167.99491644 252.02879511 -166.70047088 249.55070632 -165 247 C-164.01 247 -163.02 247 -162 247 C-161.8040625 247.72703125 -161.608125 248.4540625 -161.40625 249.203125 C-157.21607607 263.29077872 -149.06573693 274.96918291 -136.12109375 282.26171875 C-121.31614239 290.16653019 -106.16540285 292.70490463 -89.7578125 287.98828125 C-84.4460809 286.08478537 -79.33374885 283.7925897 -74.84375 280.34375 C-73 279 -73 279 -71 279 C-70.731875 278.360625 -70.46375 277.72125 -70.1875 277.0625 C-69 275 -69 275 -66 274 C-64.95671247 272.20690165 -64.95671247 272.20690165 -64 270 C-63.47664063 269.19046875 -62.95328125 268.3809375 -62.4140625 267.546875 C-53.87335154 254.19502118 -52.39683339 240.37900653 -52.54931641 224.92041016 C-52.5504083 223.27912415 -52.5496448 221.63783605 -52.54719543 219.99655151 C-52.54542396 216.49792646 -52.55559496 212.99962597 -52.57527542 209.50105667 C-52.60546173 203.96053291 -52.60254165 198.42031284 -52.59457397 192.87973022 C-52.57956029 179.13058618 -52.60125818 165.38153375 -52.64239502 151.63244629 C-52.67438408 140.91742492 -52.69356802 130.20276001 -52.67088258 119.48769605 C-52.66066793 113.98730887 -52.67782118 108.48792009 -52.71602273 102.98766637 C-52.73362165 99.56292542 -52.72614458 96.13856758 -52.71187401 92.71382523 C-52.7103007 91.13445612 -52.7188924 89.55503666 -52.73877525 87.97579193 C-52.84698502 78.89079687 -52.46549469 71.03871875 -46 64 C-45.34 64 -44.68 64 -44 64 C-43.690625 63.21625 -43.38125 62.4325 -43.0625 61.625 C-42 59 -42 59 -41 57 C-40.34 57 -39.68 57 -39 57 C-39 56.01 -39 55.02 -39 54 C-38.34 54 -37.68 54 -37 54 C-36.72849121 53.26297852 -36.45698242 52.52595703 -36.17724609 51.76660156 C-35.05582668 49.13119618 -33.81737202 47.06212391 -32.1640625 44.734375 C-31.31847778 43.53554687 -31.31847778 43.53554687 -30.45581055 42.3125 C-29.85164307 41.466875 -29.24747559 40.62125 -28.625 39.75 C-28.00085205 38.86828125 -27.3767041 37.9865625 -26.73364258 37.078125 C-25.44791451 35.26228889 -24.16022684 33.44783875 -22.87060547 31.63476562 C-21.14575293 29.20529439 -19.4314961 26.76887508 -17.72265625 24.328125 C-13.16562476 17.82272414 -8.58066298 11.33650694 -3.875 4.9375 C-2.81925781 3.49697266 -2.81925781 3.49697266 -1.7421875 2.02734375 C-0.87980469 1.02380859 -0.87980469 1.02380859 0 0 Z " fill="#050404" transform="translate(482,111)"/>
<path d="M0 0 C6.04571761 1.79514482 11.66353402 4.48667465 17.375 7.125 C18.44484131 7.61709961 19.51468262 8.10919922 20.61694336 8.61621094 C27.29887616 11.70566892 33.9170819 14.89540021 40.48291016 18.22338867 C49.69239747 22.88791867 59.07668927 27.15684918 68.5144043 31.3359375 C71.92787997 32.85800353 75.32401649 34.41689054 78.72021484 35.97705078 C80.69554065 36.8633878 82.69930904 37.68581176 84.70703125 38.49609375 C95.47857251 43.30225908 100.82964222 52.38723209 107 62 C107.64324219 62.98484375 108.28648438 63.9696875 108.94921875 64.984375 C110.02609047 66.66356481 111.08992291 68.35118746 112.140625 70.046875 C114.62702361 73.99586103 117.21857907 77.8710619 119.8125 81.75 C120.33062256 82.52512939 120.84874512 83.30025879 121.38256836 84.09887695 C122.42317529 85.65484135 123.46410717 87.21058848 124.50537109 88.76611328 C126.71617617 92.07040378 128.92060331 95.37893245 131.125 98.6875 C131.94006671 99.91018122 132.75517067 101.13283761 133.5703125 102.35546875 C151.03515625 128.55273438 151.03515625 128.55273438 168.5 154.75 C168.9127417 155.36907227 169.3254834 155.98814453 169.75073242 156.62597656 C170.58177468 157.87262115 171.41266727 159.11936553 172.2434082 160.36621094 C174.36056198 163.54339484 176.48050505 166.71865827 178.60546875 169.890625 C179.46632054 171.17696643 180.32699963 172.46342346 181.1875 173.75 C181.81023804 174.68054199 181.81023804 174.68054199 182.44555664 175.62988281 C185.56431065 180.30646159 188.57671345 185.04331911 191.52734375 189.828125 C192.87262327 191.81214467 194.24078296 193.3825706 196 195 C197.32 192.69 198.64 190.38 200 188 C200.66 188 201.32 188 202 188 C202.24234375 187.31421875 202.4846875 186.6284375 202.734375 185.921875 C204.23526482 182.45685776 206.18004247 179.39182323 208.25 176.25 C208.65041504 175.63600342 209.05083008 175.02200684 209.46337891 174.3894043 C210.26615446 173.16042614 211.07096482 171.93277443 211.87792969 170.70654297 C212.86486864 169.20551962 213.84327596 167.69889396 214.8203125 166.19140625 C217.0249912 162.81791547 219.07232984 159.78504008 222 157 C223.00145499 156.00145711 224.00164966 155.00164694 225 154 C225.1959375 154.70817871 225.391875 155.41635742 225.59375 156.14599609 C228.19487664 164.76362956 232.26904991 172.04608627 237 179.625 C251.13378962 202.40744428 251.13378962 202.40744428 249 212 C247.45550222 215.29601944 245.46567412 218.13690937 243.3125 221.0625 C242.24507355 222.57349856 241.17865877 224.08521233 240.11328125 225.59765625 C239.59072754 226.32355957 239.06817383 227.04946289 238.52978516 227.79736328 C236.55948957 230.6342619 234.79961056 233.57737654 233.06713867 236.56420898 C232.71498291 237.03802002 232.36282715 237.51183105 232 238 C231.34 238 230.68 238 230 238 C229.61134766 239.33611328 229.61134766 239.33611328 229.21484375 240.69921875 C228.00792729 243.97846121 226.69318532 246.07051619 224.5625 248.8125 C221.04066383 253.50615869 217.78920482 258.30860856 214.625 263.25 C210.513925 269.66612862 206.34001363 276.03317026 202.08447266 282.35449219 C199.89847402 285.5915657 199.89847402 285.5915657 198 289 C197.34 289 196.68 289 196 289 C195.7628125 289.68320312 195.525625 290.36640625 195.28125 291.0703125 C193.73033484 294.61661241 191.67767066 297.69506808 189.5 300.875 C188.59362671 302.21606252 187.68738023 303.55721074 186.78125 304.8984375 C186.31847656 305.5800293 185.85570312 306.26162109 185.37890625 306.96386719 C183.23441561 310.13048403 181.1179078 313.31557135 179 316.5 C178.17983826 317.73056924 177.35952473 318.96103733 176.5390625 320.19140625 C175.92272949 321.11590576 175.92272949 321.11590576 175.29394531 322.05908203 C174.3922526 323.41162109 173.4905599 324.76416016 172.58886719 326.11669922 C171.87585449 327.18621826 171.87585449 327.18621826 171.1484375 328.27734375 C170.22395833 329.6640625 169.29947917 331.05078125 168.375 332.4375 C167.93671875 333.09492188 167.4984375 333.75234375 167.046875 334.4296875 C165.5234375 336.71484375 165.5234375 336.71484375 164 339 C161.63037079 338.62228749 160.33520777 338.36881633 158.69482422 336.56396484 C158.3185791 335.95246582 157.94233398 335.3409668 157.5546875 334.7109375 C157.12220703 334.02346436 156.68972656 333.33599121 156.24414062 332.62768555 C155.79232422 331.88429932 155.34050781 331.14091309 154.875 330.375 C153.90466524 328.82618379 152.93328843 327.27802 151.9609375 325.73046875 C151.47077148 324.94333496 150.98060547 324.15620117 150.47558594 323.34521484 C148.21362553 319.75017983 145.86264038 316.21687637 143.5 312.6875 C143.09120605 312.07245605 142.68241211 311.45741211 142.26123047 310.82373047 C140.64834642 308.40676537 139.03280723 306.04108098 137.21875 303.76953125 C136 302 136 302 136 299 C135.34 299 134.68 299 134 299 C132.0543742 296.47789249 130.92993408 294.92174102 131.17602539 291.68432617 C132.20481617 288.33275444 133.81013078 286.0763775 135.87109375 283.23828125 C136.69443331 282.08549306 137.51579104 280.93128754 138.33544922 279.77587891 C138.77008484 279.16504456 139.20472046 278.55421021 139.65252686 277.92486572 C141.99797449 274.57439319 144.23361622 271.15259115 146.47265625 267.73046875 C146.93102875 267.03116241 147.38940125 266.33185608 147.86166382 265.61135864 C149.26334725 263.47098789 150.66297126 261.3292801 152.0625 259.1875 C153.03304745 257.7049762 154.00374975 256.22255376 154.97460938 254.74023438 C157.31818583 251.16131754 159.65968782 247.58105216 162 244 C161.34 242.88625 160.68 241.7725 160 240.625 C158 237.25 158 237.25 158 235 C157.34 235 156.68 235 156 235 C155.48695313 234.0615625 154.97390625 233.123125 154.4453125 232.15625 C151.54212097 227.07885095 148.1934953 222.31158943 144.875 217.5 C143.52415423 215.53034924 142.17389491 213.56029615 140.82421875 211.58984375 C140.16856934 210.63319824 139.51291992 209.67655273 138.83740234 208.69091797 C135.23365354 203.41314501 131.70088012 198.08849446 128.16943359 192.76220703 C126.11823937 189.67128429 124.05854765 186.58602797 122 183.5 C121.16662914 182.25002502 120.33329574 181.00002506 119.5 179.75 C119.0875 179.13125 118.675 178.5125 118.25 177.875 C114.5 172.25 114.5 172.25 113.24975586 170.37451172 C112.4173866 169.12603913 111.58486734 167.87766652 110.75219727 166.62939453 C108.65286492 163.48183307 106.55626545 160.33251175 104.46484375 157.1796875 C103.6225011 155.91138841 102.7800539 154.64315876 101.9375 153.375 C101.52894775 152.75906982 101.12039551 152.14313965 100.69946289 151.50854492 C98.63918871 148.41425097 96.55148593 145.34471644 94.40625 142.30859375 C93.99125244 141.71965332 93.57625488 141.13071289 93.14868164 140.52392578 C92.0095938 138.91437009 90.86248383 137.31050026 89.71484375 135.70703125 C88.21861793 133.34510758 87.42306478 131.72714065 87 129 C86.34 129 85.68 129 85 129 C83.484375 126.91015625 83.484375 126.91015625 81.75 124.0625 C78.96734518 119.54724878 76.08595297 115.13715925 73.06640625 110.77734375 C72 109 72 109 72 107 C71.34 107 70.68 107 70 107 C68.625 105.12109375 68.625 105.12109375 67 102.4375 C66.06994141 100.93509766 66.06994141 100.93509766 65.12109375 99.40234375 C64.78190918 98.85433105 64.44272461 98.30631836 64.09326172 97.74169922 C62.13715636 94.62538488 60.10189957 91.56221889 58.0625 88.5 C57.6411377 87.86537842 57.21977539 87.23075684 56.78564453 86.5769043 C53.48721142 81.64442566 50.00929258 76.88168597 46.3984375 72.171875 C45 70 45 70 45 67 C44.34 67 43.68 67 43 67 C41.625 65.12109375 41.625 65.12109375 40 62.4375 C37.15602084 57.84247581 34.25242623 53.30465272 31.25 48.8125 C30.828396 48.18134277 30.40679199 47.55018555 29.97241211 46.89990234 C25.51418007 40.24634774 20.97226449 33.65077371 16.421875 27.06005859 C13.96523116 23.50079336 11.51377126 19.93796641 9.0625 16.375 C8.61398682 15.724104 8.16547363 15.07320801 7.70336914 14.40258789 C6.86107385 13.17865985 6.02118539 11.95307083 5.18408203 10.72558594 C4.39865135 9.58096242 3.60279002 8.44342261 2.79638672 7.31347656 C0 3.32564996 0 3.32564996 0 0 Z " fill="#060606" transform="translate(4,12)"/>
<path d="M0 0 C3.55742374 1.18580791 4.06525104 2.12932627 6.14453125 5.15625 C6.73943359 6.01476562 7.33433594 6.87328125 7.94726562 7.7578125 C8.56279297 8.66273437 9.17832031 9.56765625 9.8125 10.5 C10.41642578 11.37398437 11.02035156 12.24796875 11.64257812 13.1484375 C13.44064499 15.75747317 15.22135568 18.37769675 17 21 C17.58958496 21.8559375 18.17916992 22.711875 18.78662109 23.59375 C19.33527832 24.398125 19.88393555 25.2025 20.44921875 26.03125 C20.94123779 26.74861328 21.43325684 27.46597656 21.94018555 28.20507812 C23 30 23 30 23 32 C23.66 32 24.32 32 25 32 C28 36.38461538 28 36.38461538 28 39 C28.66 39 29.32 39 30 39 C31.27709961 40.63037109 31.27709961 40.63037109 32.71484375 42.8984375 C33.24577637 43.72182617 33.77670898 44.54521484 34.32373047 45.39355469 C34.87689941 46.25368164 35.43006836 47.11380859 36 48 C37.07884119 49.6002757 38.16343915 51.19668625 39.25390625 52.7890625 C39.79853516 53.58570313 40.34316406 54.38234375 40.90429688 55.203125 C41.45150391 56.00234375 41.99871094 56.8015625 42.5625 57.625 C43.11357422 58.43195313 43.66464844 59.23890625 44.23242188 60.0703125 C44.77576172 60.864375 45.31910156 61.6584375 45.87890625 62.4765625 C46.3591626 63.17861816 46.83941895 63.88067383 47.33422852 64.60400391 C49.05427835 67.16872165 49.05427835 67.16872165 51.56653118 69.96124363 C54.94640254 74.73059485 54.6821254 79.3403586 54.60127258 85.01609802 C54.60554471 86.11647103 54.60981683 87.21684404 54.61421841 88.35056168 C54.62244557 92.03287034 54.59496575 95.71403673 54.56762695 99.39624023 C54.56621642 102.03765932 54.56678843 104.67900873 54.56983948 107.32041931 C54.57245761 113.00460543 54.55680851 118.68850394 54.52865028 124.37261772 C54.48796535 132.59077811 54.47498799 140.80879984 54.46871033 149.02705003 C54.45777495 162.36145523 54.42452136 175.69570724 54.37719727 189.0300293 C54.33128204 201.98086787 54.29589977 214.93166479 54.2746582 227.88256836 C54.27334459 228.68124411 54.27203097 229.47991986 54.27067754 230.30279791 C54.26415222 234.3096343 54.25783371 238.31647099 54.25161803 242.32330787 C54.19980859 275.54898342 54.11176401 308.77447119 54 342 C51 342 51 342 48.8125 340.125 C47 338 47 338 47 336 C46.34 336 45.68 336 45 336 C43.625 334.6015625 43.625 334.6015625 42 332.625 C38.23777988 328.17078591 34.13941718 324.14316468 29.94140625 320.1015625 C28 318 28 318 28 316 C27.13761719 315.64421875 27.13761719 315.64421875 26.2578125 315.28125 C23.51039778 313.72216345 21.93059202 311.89692649 19.875 309.5 C15.8959376 304.94968607 11.72075172 300.70274716 7.359375 296.51953125 C0.56222855 289.2609891 -0.73236062 285.13016493 -0.60127258 275.2625885 C-0.60554471 274.084628 -0.60981683 272.9066675 -0.61421841 271.69301122 C-0.62101459 268.43620142 -0.60545084 265.18039397 -0.58032811 261.9237026 C-0.55868896 258.40709305 -0.56604596 254.89052827 -0.56983948 251.37387085 C-0.5724583 245.28535518 -0.55680185 239.19710791 -0.52865028 233.10865974 C-0.48797485 224.30588771 -0.47498895 215.50324514 -0.46871033 206.70038932 C-0.45777347 192.41761766 -0.42451583 178.13498897 -0.37719727 163.85229492 C-0.33128589 149.97990635 -0.29590172 136.10755665 -0.2746582 122.23510742 C-0.27268778 120.95196442 -0.27268778 120.95196442 -0.27067754 119.64289934 C-0.26415225 115.35136558 -0.25783373 111.05983154 -0.25161803 106.76829731 C-0.19980398 71.17876297 -0.11175531 35.58939468 0 0 Z " fill="#050505" transform="translate(41,111)"/>
<path d="M0 0 C1.11979242 1.11979242 2.23889873 2.24027567 3.35546875 3.36328125 C4.5980685 4.59997791 5.85283833 5.82446294 7.11328125 7.04296875 C7.83902344 7.75066406 8.56476563 8.45835938 9.3125 9.1875 C10.00988281 9.86167969 10.70726562 10.53585938 11.42578125 11.23046875 C13 13 13 13 13 15 C13.639375 15.268125 14.27875 15.53625 14.9375 15.8125 C17 17 17 17 18 20 C19.31658873 20.69915402 20.65455981 21.35811767 22 22 C23.95786168 23.49452933 25.89268443 25.01940296 27.8125 26.5625 C32.68058201 30.39505937 37.68189984 33.82097983 43 37 C43.62237549 37.37326416 44.24475098 37.74652832 44.88598633 38.13110352 C48.16948287 40.0565256 51.42182147 41.69884417 55 43 C54.86722656 42.45472656 54.73445313 41.90945312 54.59765625 41.34765625 C51.27710843 27.1686747 51.27710843 27.1686747 53 22 C57.043349 23.347783 57.51615837 25.154571 59.625 28.8125 C63.08784198 34.69179275 66.92068582 40.05321506 71.1171875 45.44140625 C72.69820989 47.58989103 73.91584289 49.57491173 75 52 C75.66 52 76.32 52 77 52 C77 52.66 77 53.32 77 54 C77.71414063 54.10054687 78.42828125 54.20109375 79.1640625 54.3046875 C87.41716432 56.32817527 94.49831478 62.75080321 100 69 C101.2065625 70.36125 101.2065625 70.36125 102.4375 71.75 C104 74 104 74 104 77 C104.66 77 105.32 77 106 77 C107.26171875 78.5390625 107.26171875 78.5390625 108.6875 80.625 C110.82600527 83.63786949 112.81598876 85.72934997 115.8125 87.875 C117.62890625 89.30078125 117.62890625 89.30078125 119 91 C119.27734375 93.41796875 119.27734375 93.41796875 119.25 96.0625 C119.17525787 98.647562 119.17525787 98.647562 120 101 C123.42168509 103.4118314 127.0213702 104.75462988 131 106 C131 106.66 131 107.32 131 108 C131.61488281 108.07476562 132.22976563 108.14953125 132.86328125 108.2265625 C135.36077265 108.63285297 137.62567912 109.12030557 140 110 C141.5625 112.5 141.5625 112.5 143 116 C144.3240919 117.64959783 145.68184029 119.27244855 147.0625 120.875 C150.68728845 125.34245145 152.53488079 128.23252179 153 134 C152.00933705 138.96240342 150.07725582 142.88209849 146 146 C143.24794118 147.44483088 141.77295357 148.12534382 138.6875 147.625 C138.130625 147.41875 137.57375 147.2125 137 147 C137.350625 146.484375 137.70125 145.96875 138.0625 145.4375 C139.35594374 142.07454628 138.58411793 139.50062286 138 136 C129.19421143 133.81157917 121.08009321 132.5509844 112 133 C111.88785156 132.11248047 111.88785156 132.11248047 111.7734375 131.20703125 C111.04522338 126.8306072 110.47127589 124.50493846 107.375 121.1875 C106.27695619 120.41833888 105.14958721 119.68975233 104 119 C103.39929688 118.63132812 102.79859375 118.26265625 102.1796875 117.8828125 C97.1517938 115.09406174 91.77344565 113.25980505 86 113 C82.45984528 114.18021764 82.45984528 114.18021764 80 116 C78.71816969 127.10919601 85.59587911 135.80923677 92.00390625 144.30078125 C94.55369892 147.74873964 96.80753029 151.34360674 99.08203125 154.9765625 C101.35654659 158.56205104 103.70316464 162.09498867 106.0625 165.625 C106.70191528 166.58599609 106.70191528 166.58599609 107.35424805 167.56640625 C109.21015362 170.35044399 111.08133422 173.11551358 113.0078125 175.8515625 C113.56210937 176.64304688 114.11640625 177.43453125 114.6875 178.25 C115.16574219 178.91515625 115.64398438 179.5803125 116.13671875 180.265625 C117 182 117 182 116 185 C106.39687993 185.77444517 99.9132735 182.67948236 92.625 176.5 C89.78568781 173.87334885 87.28077097 171.13606008 85 168 C85.6921052 172.20831784 87.06891719 175.95035729 88.5625 179.9375 C94.25253451 196.76386194 89.14470595 208.45646418 82 224 C79.15672943 220.53752829 76.58916222 216.99077638 74.125 213.25 C73.43664062 212.2084375 72.74828125 211.166875 72.0390625 210.09375 C71.36617188 209.0728125 70.69328125 208.051875 70 207 C68.83446847 205.24924377 67.66794373 203.49914795 66.5 201.75 C65.66666667 200.5 64.83333333 199.25 64 198 C60.95156378 201.61296145 58.46696661 205.37885778 56.05078125 209.42578125 C55.70402344 209.94527344 55.35726562 210.46476563 55 211 C54.67 211 54.34 211 54 211 C53.92265625 210.08734375 53.92265625 210.08734375 53.84375 209.15625 C52.16703764 196.19983633 44.80773886 185.11461155 38.09130859 174.17529297 C35.29397647 169.59258667 32.95276948 164.99520592 31 160 C30.5875 158.989375 30.175 157.97875 29.75 156.9375 C29.5025 156.298125 29.255 155.65875 29 155 C28.01 156.65 27.02 158.3 26 160 C25.67 159.01 25.34 158.02 25 157 C24.19676969 155.6818067 23.38303158 154.36999395 22.5625 153.0625 C19.46613576 147.63938807 18.69588308 142.13831193 18 136 C17.16855469 135.87882813 16.33710938 135.75765625 15.48046875 135.6328125 C13.85044922 135.38144531 13.85044922 135.38144531 12.1875 135.125 C10.56908203 134.88136719 10.56908203 134.88136719 8.91796875 134.6328125 C6 134 6 134 3 132 C3 131.01 3 130.02 3 129 C3.73605469 128.90203125 4.47210938 128.8040625 5.23046875 128.703125 C12.94755567 127.60812958 12.94755567 127.60812958 19 123 C23.75961207 116.34212622 26.2873549 110.88552951 26.3125 102.5625 C26.33763672 100.64630859 26.33763672 100.64630859 26.36328125 98.69140625 C25.72097669 92.16476318 22.8346923 88.2591337 18 84 C11.41602617 79.39121832 4.16240763 79.15255658 -3.59375 80.42578125 C-9.92556932 81.98012846 -13.5768581 84.42243313 -17 90 C-19.55441252 95.45715403 -20.04664221 100.93743388 -18.1015625 106.62890625 C-17.38882813 108.36524848 -16.64823969 110.09052542 -15.875 111.80078125 C-15 114 -15 114 -15 117 C-18.33772993 115.59844241 -20.01749057 114.0490314 -22.125 111.125 C-22.62257812 110.44695312 -23.12015625 109.76890625 -23.6328125 109.0703125 C-28.03325088 102.40679153 -27.75041786 95.75695096 -27 88 C-24.69622211 79.87784352 -19.34961215 74.03216883 -12.0703125 69.90625 C-8.81533579 68.39750543 -6.63378321 68 -3 68 C-3 67.34 -3 66.68 -3 66 C-15.79567084 62.01446318 -28.80332328 58.37972859 -42 56 C-41.859375 54.1640625 -41.859375 54.1640625 -41 52 C-22.62913211 41.54362551 0.64756082 43.88534023 20.26171875 49.08984375 C23.52712487 49.9985764 26.76857921 50.97654358 30 52 C30 51.34 30 50.68 30 50 C29.42636719 49.73960938 28.85273438 49.47921875 28.26171875 49.2109375 C14.0833183 41.61973864 5.14316419 25.45070487 0.625 10.625 C-1.39383562 3.67465753 -1.39383562 3.67465753 0 0 Z M71 67 C72 69 72 69 72 69 Z M72 69 C71.67 71.31 71.34 73.62 71 76 C68.69 76.33 66.38 76.66 64 77 C66.12774712 79.30592263 68.17209077 80.79825935 70.94140625 82.26171875 C71.68970703 82.65810547 72.43800781 83.05449219 73.20898438 83.46289062 C73.98564453 83.86701172 74.76230469 84.27113281 75.5625 84.6875 C76.73329102 85.31108398 76.73329102 85.31108398 77.92773438 85.94726562 C81.76750045 88.18578665 81.76750045 88.18578665 86 89 C83.04002156 80.65824257 79.16560741 74.26579219 72 69 Z M102 99 C102.63921965 101.47627099 102.63921965 101.47627099 104 104 C106.52372901 105.36078035 106.52372901 105.36078035 109 106 C109.66 105.34 110.32 104.68 111 104 C109.87926138 103.16094435 108.75325453 102.32892169 107.625 101.5 C106.99851562 101.0359375 106.37203125 100.571875 105.7265625 100.09375 C104.05905387 98.82161899 104.05905387 98.82161899 102 99 Z M29.5625 128.125 C26.99775746 132.84412627 26.86363101 136.63383604 26.875 142 C26.87242187 143.216875 26.86984375 144.43375 26.8671875 145.6875 C26.97383845 148.34750011 27.20692126 150.48228971 28 153 C28.66 153 29.32 153 30 153 C30.34756348 152.34080566 30.69512695 151.68161133 31.05322266 151.00244141 C34.8501092 143.90901387 39.0002733 137.12431739 43.375 130.375 C44.6347862 128.42575334 45.89271119 126.47530206 47.1484375 124.5234375 C47.69677246 123.67700684 48.24510742 122.83057617 48.81005859 121.95849609 C50.08654176 120.23950494 50.08654176 120.23950494 50 119 C40.40861825 117.93865858 35.44013878 120.58956566 29.5625 128.125 Z " fill="#A48337" transform="translate(199,12)"/>
<path d="M0 0 C3.1715661 1.33019897 4.58287151 2.41298063 6.140625 5.4765625 C6.48867188 6.146875 6.83671875 6.8171875 7.1953125 7.5078125 C7.54335938 8.20648438 7.89140625 8.90515625 8.25 9.625 C8.61351562 10.33140625 8.97703125 11.0378125 9.3515625 11.765625 C10.24480617 13.50509952 11.12380998 15.25187331 12 17 C15.77409317 11.39722251 19.45768687 5.75234036 23 0 C27.48761942 1.50273494 29.34567746 5.07371067 31.75 8.875 C32.64321565 10.25000878 33.53644497 11.62500868 34.4296875 13 C35.08662598 14.02287109 35.08662598 14.02287109 35.75683594 15.06640625 C40.6336991 22.6517865 45.73041923 30.07663688 50.9375 37.4375 C51.44611572 38.15953613 51.95473145 38.88157227 52.47875977 39.62548828 C54.88890431 43.04194417 57.31662481 46.44056848 59.8046875 49.80078125 C60.23015869 50.38609619 60.65562988 50.97141113 61.09399414 51.57446289 C62.23642002 53.14538431 63.39311193 54.70590299 64.55078125 56.265625 C66 59 66 59 65.953125 61.40234375 C64.69215211 64.83901167 63.12084262 68.06908285 61.4375 71.3125 C60.70824509 72.74474674 59.97908096 74.17703971 59.25 75.609375 C58.87617188 76.33833984 58.50234375 77.06730469 58.1171875 77.81835938 C52.51062492 88.7668391 47.04281085 99.7793478 42 111 C41.56671387 111.9585791 41.13342773 112.9171582 40.68701172 113.90478516 C29.45520807 138.91467393 20.79734486 164.41851318 14 191 C13.01 191 12.02 191 11 191 C10.83508057 190.35901367 10.67016113 189.71802734 10.50024414 189.05761719 C7.11920128 176.00441383 3.51793286 163.04081999 -0.5625 150.1875 C-0.91368896 149.06375977 -1.26487793 147.94001953 -1.62670898 146.78222656 C-3.83903641 139.92152577 -6.51503903 133.45777177 -9.61010742 126.94897461 C-11.35323935 123.25052203 -12.87385445 119.48845604 -14.375 115.6875 C-17.51634512 107.91132554 -21.14048886 100.45550295 -24.97509766 93.00146484 C-27.05853297 88.93286009 -29.08956095 84.83763606 -31.12060547 80.74267578 C-32.66405119 77.63804359 -34.2347084 74.561453 -35.87109375 71.50390625 C-36.70833984 69.92416016 -36.70833984 69.92416016 -37.5625 68.3125 C-38.05878906 67.40113281 -38.55507812 66.48976563 -39.06640625 65.55078125 C-40.19728104 62.46098527 -39.87338414 61.13923922 -39 58 C-37.82006836 55.87866211 -37.82006836 55.87866211 -36.33984375 53.77734375 C-35.52664673 52.60836548 -35.52664673 52.60836548 -34.69702148 51.41577148 C-34.11637939 50.59794189 -33.5357373 49.7801123 -32.9375 48.9375 C-31.73908625 47.21909656 -30.54116787 45.50034754 -29.34375 43.78125 C-28.76367188 42.95367187 -28.18359375 42.12609375 -27.5859375 41.2734375 C-25.66489262 38.5196244 -23.79270664 35.73603205 -21.9375 32.9375 C-21.33035156 32.02226562 -20.72320312 31.10703125 -20.09765625 30.1640625 C-19.40542969 29.11992187 -18.71320313 28.07578125 -18 27 C-15.95980802 23.93651647 -13.91731745 20.87456682 -11.875 17.8125 C-10.89319201 16.33986852 -9.91142037 14.86721281 -8.9296875 13.39453125 C-5.953125 8.9296875 -2.9765625 4.46484375 0 0 Z " fill="#A28237" transform="translate(250,263)"/>
<path d="M0 0 C2.64 0 5.28 0 8 0 C8 1.65 8 3.3 8 5 C3.545 5.495 3.545 5.495 -1 6 C-1 8.64 -1 11.28 -1 14 C-0.13375 13.835 0.7325 13.67 1.625 13.5 C7.66474519 12.64073728 13.92479609 12.53510113 20 13 C20.66 13.66 21.32 14.32 22 15 C21.67 15.33 21.34 15.66 21 16 C18.85377048 15.99402996 16.70761963 15.94427189 14.5625 15.875 C7.56903258 15.85365676 0.74457523 15.91072543 -4.875 20.546875 C-9.52614631 25.60052436 -11.46960486 30.84000779 -11.3359375 37.77734375 C-10.79404368 41.3626645 -9.36148047 44.51297548 -7.875 47.80078125 C-7 50 -7 50 -7 53 C-10.33772993 51.59844241 -12.01749057 50.0490314 -14.125 47.125 C-14.62257812 46.44695312 -15.12015625 45.76890625 -15.6328125 45.0703125 C-20.03325088 38.40679153 -19.75041786 31.75695096 -19 24 C-16.69622211 15.87784352 -11.34961215 10.03216883 -4.0703125 5.90625 C-0.81533579 4.39750543 1.36621679 4 5 4 C5 3.34 5 2.68 5 2 C2.525 1.505 2.525 1.505 0 1 C0 0.67 0 0.34 0 0 Z " fill="#A68945" transform="translate(191,76)"/>
<path d="M0 0 C4.043349 1.347783 4.51615837 3.154571 6.625 6.8125 C10.08784198 12.69179275 13.92068582 18.05321506 18.1171875 23.44140625 C19.69820989 25.58989103 20.91584289 27.57491173 22 30 C22.66 30 23.32 30 24 30 C24 30.66 24 31.32 24 32 C17.25 30.375 17.25 30.375 15 27 C12 21.34615385 12 21.34615385 12 19 C8.8684413 19.89767656 8.8684413 19.89767656 6 22 C5.67 21.01 5.34 20.02 5 19 C4.67 19.99 4.34 20.98 4 22 C2.02 22.33 0.04 22.66 -2 23 C-2 22.01 -2 21.02 -2 20 C-0.68 20.33 0.64 20.66 2 21 C1.86722656 20.45472656 1.73445312 19.90945312 1.59765625 19.34765625 C-1.72289157 5.1686747 -1.72289157 5.1686747 0 0 Z " fill="#9D854B" transform="translate(252,34)"/>
<path d="M0 0 C0.68707555 2.49064888 1 4.37886292 1 7 C0.34 7 -0.32 7 -1 7 C-0.67 7.99 -0.34 8.98 0 10 C-1.28965176 11.37562854 -2.62689293 12.70766393 -4 14 C-4.66 14 -5.32 14 -6 14 C-6.99 16.97 -7.98 19.94 -9 23 C-9.66 23 -10.32 23 -11 23 C-10.7525 23.7425 -10.505 24.485 -10.25 25.25 C-10 28 -10 28 -11.75 30.3125 C-14 32 -14 32 -17 32 C-17.66 33.32 -18.32 34.64 -19 36 C-19 35.34 -19 34.68 -19 34 C-19.66 33.67 -20.32 33.34 -21 33 C-16.18021851 25.29513803 -11.17560552 17.72647295 -6.08886719 10.19580078 C-5.5890332 9.45185059 -5.08919922 8.70790039 -4.57421875 7.94140625 C-4.12651123 7.27826416 -3.67880371 6.61512207 -3.2175293 5.93188477 C-2.00420759 4.00667629 -0.98166115 2.05157755 0 0 Z " fill="#A58C4A" transform="translate(246,268)"/>
<path d="M0 0 C1.65 0.99 3.3 1.98 5 3 C5 2.01 5 1.02 5 0 C5.66 0 6.32 0 7 0 C6.566875 1.051875 6.566875 1.051875 6.125 2.125 C5.75375 3.07375 5.3825 4.0225 5 5 C4.62875 5.928125 4.2575 6.85625 3.875 7.8125 C1.85507862 15.17078503 3.0580789 20.01734812 6.125 26.80078125 C7 29 7 29 7 32 C3.66565758 30.5968277 1.94473521 29.03010195 -0.1875 26.125 C-0.69667969 25.44695312 -1.20585937 24.76890625 -1.73046875 24.0703125 C-2.98995557 22.01638014 -3.56190327 20.35411015 -4 18 C-3.01 18 -2.02 18 -1 18 C-0.83156069 15.75013201 -0.66531346 13.50009983 -0.5 11.25 C-0.4071875 9.99703125 -0.314375 8.7440625 -0.21875 7.453125 C-0.06161598 4.97265229 0 2.48544483 0 0 Z " fill="#A69260" transform="translate(177,97)"/>
<path d="M0 0 C0.66 0 1.32 0 2 0 C2.33 2.97 2.66 5.94 3 9 C5.71224618 7.38731308 8.37352812 5.75098126 11 4 C9.9611908 10.1112924 8.84269722 16.07704464 7 22 C6.01 22 5.02 22 4 22 C3.13372595 19.08644159 2.28168994 16.16995672 1.4375 13.25 C1.19064453 12.425 0.94378906 11.6 0.68945312 10.75 C0.46064453 9.95078125 0.23183594 9.1515625 -0.00390625 8.328125 C-0.21861572 7.5949707 -0.4333252 6.86181641 -0.65454102 6.10644531 C-1.03914672 3.76130184 -0.72878764 2.24174192 0 0 Z " fill="#9D8A5B" transform="translate(257,432)"/>
<path d="M0 0 C0.99 0.495 0.99 0.495 2 1 C2 1.99 2 2.98 2 4 C2.66 4 3.32 4 4 4 C5.26171875 5.5390625 5.26171875 5.5390625 6.6875 7.625 C8.84073953 10.66080191 10.86153113 12.76755791 13.875 14.9375 C16.14774215 16.74070861 16.90371383 17.48278137 17.44140625 20.37109375 C17.43789202 22.62371336 17.31211932 24.77057628 17 27 C16.01 26.34 15.02 25.68 14 25 C13.3125 21.375 13.3125 21.375 13 18 C11.02 18 9.04 18 7 18 C7 17.34 7 16.68 7 16 C6.34 16 5.68 16 5 16 C5 14.68 5 13.36 5 12 C4.34 12 3.68 12 3 12 C2.01 8.04 1.02 4.08 0 0 Z " fill="#A08B52" transform="translate(301,85)"/>
<path d="M0 0 C0 0.33 0 0.66 0 1 C-0.71542969 0.98952637 -1.43085938 0.97905273 -2.16796875 0.96826172 C-5.44527601 0.92639444 -8.72252674 0.90057671 -12 0.875 C-13.68802734 0.84986328 -13.68802734 0.84986328 -15.41015625 0.82421875 C-21.69504107 0.78746504 -26.9687503 1.28065384 -33 3 C-35.57421875 3.125 -35.57421875 3.125 -37.6875 3 C-41.31214954 2.89412536 -43.64971466 3.56416343 -47 5 C-49.13671875 4.55859375 -49.13671875 4.55859375 -51 4 C-34.10436888 -2.97494992 -17.81991808 -2.99225011 0 0 Z " fill="#B29D75" transform="translate(211,59)"/>
<path d="M0 0 C4.34952639 2.17476319 5.42488047 9.62001646 7 14 C7.433125 15.134375 7.86625 16.26875 8.3125 17.4375 C10.21382632 27.28982732 9.61727989 36.05402021 5 45 C3.8828125 41.265625 3.8828125 41.265625 4.9375 38.875 C7.75930477 31.23952827 5.64356114 22.71886747 4 15 C3.67 15 3.34 15 3 15 C3 12.69 3 10.38 3 8 C2.34 8 1.68 8 1 8 C0.67 5.36 0.34 2.72 0 0 Z " fill="#907D49" transform="translate(281,179)"/>
<path d="M0 0 C0.99 0 1.98 0 3 0 C2.68289062 1.093125 2.36578125 2.18625 2.0390625 3.3125 C0.73873989 8.51379043 0.55176115 13.66034038 0.375 19 C0.33632812 19.96550781 0.29765625 20.93101562 0.2578125 21.92578125 C0.16443059 24.2836744 0.07865671 26.64157756 0 29 C-3.05122595 27.66981679 -3.91637438 27.13439831 -5.75 24.1875 C-6.94728978 21.13441107 -7.28472808 19.22691821 -7 16 C-6.34 16.99 -5.68 17.98 -5 19 C-4.34 19 -3.68 19 -3 19 C-2.95101562 18.21496094 -2.90203125 17.42992187 -2.8515625 16.62109375 C-2.4379964 10.80977697 -1.88217852 5.521057 0 0 Z " fill="#A99464" transform="translate(226,139)"/>
<path d="M0 0 C0.33 0.66 0.66 1.32 1 2 C-0.25 5.5625 -0.25 5.5625 -2 9 C-2.99 9.33 -3.98 9.66 -5 10 C-5 10.66 -5 11.32 -5 12 C-6.65 12.66 -8.3 13.32 -10 14 C-10 14.66 -10 15.32 -10 16 C-16.625 17.25 -16.625 17.25 -20 15 C-20 14.01 -20 13.02 -20 12 C-18.89591797 11.85304687 -18.89591797 11.85304687 -17.76953125 11.703125 C-10.07719198 10.58722776 -10.07719198 10.58722776 -4 6 C-2.60644236 4.04148656 -1.25717453 2.04872887 0 0 Z " fill="#A9966A" transform="translate(222,129)"/>
<path d="M0 0 C0.99 0.33 1.98 0.66 3 1 C3.33 2.98 3.66 4.96 4 7 C3.01 6.67 2.02 6.34 1 6 C0.67 11.28 0.34 16.56 0 22 C-1.32 22 -2.64 22 -4 22 C-4.57184845 13.78762084 -3.26682231 7.53994257 0 0 Z " fill="#A3823A" transform="translate(177,93)"/>
<path d="M0 0 C1.27495761 3.82487284 0.48308579 5.2719277 -0.80078125 9.05859375 C-1.20103516 10.24904297 -1.60128906 11.43949219 -2.01367188 12.66601562 C-2.6565918 14.53290039 -2.6565918 14.53290039 -3.3125 16.4375 C-3.72951172 17.67822266 -4.14652344 18.91894531 -4.57617188 20.19726562 C-7.96832521 30.20060138 -7.96832521 30.20060138 -10 34 C-9.979375 33.2575 -9.95875 32.515 -9.9375 31.75 C-9.85977161 29.1144275 -9.85977161 29.1144275 -10.6171875 27.18359375 C-11.15156469 24.13546264 -10.27308297 22.18565068 -9.1875 19.3125 C-8.83042969 18.33925781 -8.47335937 17.36601562 -8.10546875 16.36328125 C-7 14 -7 14 -5 13 C-4.42453328 11.02039447 -3.93714583 9.01467206 -3.5 7 C-3.06285417 4.98532794 -2.57546672 2.97960553 -2 1 C-1.34 0.67 -0.68 0.34 0 0 Z " fill="#B09E75" transform="translate(278,402)"/>
<path d="M0 0 C0.33 0 0.66 0 1 0 C1 21.45 1 42.9 1 65 C0.01 65 -0.98 65 -2 65 C-2.66 64.01 -3.32 63.02 -4 62 C-3.01 62 -2.02 62 -1 62 C-0.67 41.54 -0.34 21.08 0 0 Z " fill="#787677" transform="translate(94,388)"/>
<path d="M0 0 C5.38096904 0.43047752 8.85493157 1.46152695 13 5 C13 6.32 13 7.64 13 9 C9.7 9.66 6.4 10.32 3 11 C-0.317124 6.577168 -0.30466674 5.28089024 0 0 Z M1 1 C1.63921965 3.47627099 1.63921965 3.47627099 3 6 C5.52372901 7.36078035 5.52372901 7.36078035 8 8 C8.66 7.34 9.32 6.68 10 6 C8.87926138 5.16094435 7.75325453 4.32892169 6.625 3.5 C5.99851562 3.0359375 5.37203125 2.571875 4.7265625 2.09375 C3.05905387 0.82161899 3.05905387 0.82161899 1 1 Z " fill="#A18A4F" transform="translate(300,110)"/>
<path d="M0 0 C1.32 0.66 2.64 1.32 4 2 C4 2.99 4 3.98 4 5 C3.21625 5.45375 2.4325 5.9075 1.625 6.375 C-1.51658826 8.31979274 -1.81059128 9.60168938 -3 13 C-5.00992738 15.46672906 -7.11118101 16.70501218 -10 18 C-8.5216233 13.98832453 -6.60821705 10.42979591 -4.4375 6.75 C-3.81746094 5.69296875 -3.19742187 4.6359375 -2.55859375 3.546875 C-1 1 -1 1 0 0 Z " fill="#A89868" transform="translate(273,263)"/>
<path d="M0 0 C0.99 0 1.98 0 3 0 C1.47980498 5.03564599 -0.63613593 9.57366021 -3 14.25 C-3.35578125 14.96929687 -3.7115625 15.68859375 -4.078125 16.4296875 C-6.74647556 21.74647556 -6.74647556 21.74647556 -9 24 C-9.66 23.67 -10.32 23.34 -11 23 C-10.67 21.02 -10.34 19.04 -10 17 C-9.01 16.67 -8.02 16.34 -7 16 C-6.26919734 14.02253397 -5.60578253 12.01927511 -5 10 C-4.34 9.01 -3.68 8.02 -3 7 C-2.34 7 -1.68 7 -1 7 C-1.020625 6.030625 -1.04125 5.06125 -1.0625 4.0625 C-1 1 -1 1 0 0 Z " fill="#A48D5B" transform="translate(310,329)"/>
<path d="M0 0 C2 3.75 2 3.75 2 6 C2.9075 6.226875 3.815 6.45375 4.75 6.6875 C8.48847828 8.19727008 9.7216284 9.74518343 12 13 C12.66 13.66 13.32 14.32 14 15 C13.67 15.66 13.34 16.32 13 17 C11.35 16.67 9.7 16.34 8 16 C8.33 15.01 8.66 14.02 9 13 C8.42765625 12.74476562 7.8553125 12.48953125 7.265625 12.2265625 C4.75826267 10.86912841 2.8669544 9.28025896 0.75 7.375 C0.04359375 6.74335937 -0.6628125 6.11171875 -1.390625 5.4609375 C-1.92171875 4.97882812 -2.4528125 4.49671875 -3 4 C-2.34 3.67 -1.68 3.34 -1 3 C-0.67 2.01 -0.34 1.02 0 0 Z " fill="#B09962" transform="translate(220,49)"/>
<path d="M0 0 C1.78125 0.0859375 1.78125 0.0859375 4 1 C5.35523032 3.21710926 6.44138676 5.2734263 7.5 7.625 C10.27434545 13.52521323 10.27434545 13.52521323 13.5 19.1875 C13.995 20.115625 14.49 21.04375 15 22 C14.67 22.99 14.34 23.98 14 25 C12.03556554 21.774508 10.07954857 18.54399048 8.125 15.3125 C7.56941406 14.40048828 7.01382813 13.48847656 6.44140625 12.54882812 C5.90644531 11.66259766 5.37148437 10.77636719 4.8203125 9.86328125 C4.32805176 9.05157471 3.83579102 8.23986816 3.32861328 7.40356445 C1.9956151 4.99206738 0.96682527 2.57753211 0 0 Z " fill="#957C47" transform="translate(232,176)"/>
<path d="M0 0 C1 2 1 2 0.37915039 3.97119141 C0.03875732 4.75671387 -0.30163574 5.54223633 -0.65234375 6.3515625 C-1.01650391 7.20234375 -1.38066406 8.053125 -1.75585938 8.9296875 C-2.34077148 10.26386719 -2.34077148 10.26386719 -2.9375 11.625 C-3.32357422 12.5221875 -3.70964844 13.419375 -4.10742188 14.34375 C-5.06470725 16.56559754 -6.02914277 18.78405708 -7 21 C-7.33 21 -7.66 21 -8 21 C-8.50656782 14.00654987 -8.13822981 9.7475414 -4 4 C-1.75 1.5625 -1.75 1.5625 0 0 Z " fill="#A89460" transform="translate(287,381)"/>
<path d="M0 0 C0.598125 0.33 1.19625 0.66 1.8125 1 C4.05386471 2.20787988 4.05386471 2.20787988 7 2 C7.66 3.65 8.32 5.3 9 7 C8.01 6.67 7.02 6.34 6 6 C6 6.66 6 7.32 6 8 C2.625 7.6875 2.625 7.6875 -1 7 C-1.66 6.01 -2.32 5.02 -3 4 C-2.01 2.68 -1.02 1.36 0 0 Z " fill="#AD8D47" transform="translate(306,187)"/>
<path d="M0 0 C5.14442584 0.42870215 7.97531011 0.66922216 12 4 C14.64934822 4.71433121 14.64934822 4.71433121 17 5 C17 4.34 17 3.68 17 3 C18.32 3.33 19.64 3.66 21 4 C20.67 4.99 20.34 5.98 20 7 C12.47681236 7.60670868 7.34951369 6.15741968 1 2 C0.67 1.34 0.34 0.68 0 0 Z " fill="#907B44" transform="translate(295,190)"/>
<path d="M0 0 C0.99 0.33 1.98 0.66 3 1 C4.22517308 6.66642551 4.09228867 12.23708518 4 18 C4.66 18.33 5.32 18.66 6 19 C5.34 19.99 4.68 20.98 4 22 C3.01 22 2.02 22 1 22 C1 23.65 1 25.3 1 27 C0.34 26.67 -0.32 26.34 -1 26 C-0.67386719 25.00355469 -0.34773437 24.00710937 -0.01171875 22.98046875 C1.10810013 19.05368993 1.23299848 15.40322692 1.1875 11.3125 C1.18105469 10.02988281 1.17460937 8.74726562 1.16796875 7.42578125 C1.03602731 4.73478952 0.8059597 2.54683267 0 0 Z " fill="#A4935E" transform="translate(224,103)"/>
<path d="M0 0 C0.66 0 1.32 0 2 0 C2 0.66 2 1.32 2 2 C3.05960938 2.13277344 4.11921875 2.26554687 5.2109375 2.40234375 C6.59898279 2.58053875 7.98700231 2.7589346 9.375 2.9375 C10.07367188 3.02451172 10.77234375 3.11152344 11.4921875 3.20117188 C16.7734375 3.88671875 16.7734375 3.88671875 19 5 C19 5.66 19 6.32 19 7 C19.66 7.33 20.32 7.66 21 8 C13.5403037 7.25403037 6.31048782 5.63253871 -1 4 C-0.67 2.68 -0.34 1.36 0 0 Z " fill="#B29B6E" transform="translate(158,64)"/>
<path d="M0 0 C2.93200474 2.85276137 5.64315404 5.65079784 8 9 C6.68 9 5.36 9 4 9 C3.67 10.65 3.34 12.3 3 14 C0.49360113 11.49360113 0.4120229 9.89489895 -0.1875 6.4375 C-0.36667969 5.44621094 -0.54585937 4.45492188 -0.73046875 3.43359375 C-0.81941406 2.63050781 -0.90835938 1.82742188 -1 1 C-0.67 0.67 -0.34 0.34 0 0 Z " fill="#A08B58" transform="translate(199,12)"/>
<path d="M0 0 C3.55077009 2.84061607 4.95032538 5.49205154 5.88671875 9.83203125 C6.0920713 13.76205409 4.72095159 16.49663427 3 20 C2.34 20.33 1.68 20.66 1 21 C1 18.69 1 16.38 1 14 C1.33 14 1.66 14 2 14 C2.25328119 8.93437617 1.33583899 4.84241633 0 0 Z " fill="#AF9D73" transform="translate(346,134)"/>
<path d="M0 0 C3.59476701 3.49205938 6.92026191 7.04033675 10 11 C10 11.66 10 12.32 10 13 C10.66 13 11.32 13 12 13 C12 13.66 12 14.32 12 15 C5.25 13.375 5.25 13.375 3 10 C0.91208165 6.22568605 0 4.38813344 0 0 Z " fill="#A08C55" transform="translate(264,51)"/>
<path d="M0 0 C4.42679007 1.47559669 4.91432696 3.90057368 7 8 C7 8.66 7 9.32 7 10 C4.69 10.66 2.38 11.32 0 12 C-0.19573608 10.56359829 -0.38127816 9.12580496 -0.5625 7.6875 C-0.66691406 6.88699219 -0.77132812 6.08648437 -0.87890625 5.26171875 C-1 3 -1 3 0 0 Z " fill="#A3926E" transform="translate(252,34)"/>
<path d="M0 0 C0.33 1.32 0.66 2.64 1 4 C0.01 4.66 -0.98 5.32 -2 6 C-2 7.32 -2 8.64 -2 10 C-2.99 10.495 -2.99 10.495 -4 11 C-4 14.3 -4 17.6 -4 21 C-6.71262776 18.28737224 -7.94366659 16.95487131 -8.4140625 13.18359375 C-7.4446308 8.07121335 -3.2380415 3.91824278 0 0 Z " fill="#B4A475" transform="translate(218,311)"/>
<path d="M0 0 C3.63 0 7.26 0 11 0 C11.33 0.66 11.66 1.32 12 2 C10.625 4 10.625 4 9 6 C8.34 6 7.68 6 7 6 C6.938125 6.598125 6.87625 7.19625 6.8125 7.8125 C5.6763243 10.87143458 3.82669858 11.55041099 1 13 C2.45044271 8.89041233 4.51110752 5.56741255 7 2 C4.69 1.67 2.38 1.34 0 1 C0 0.67 0 0.34 0 0 Z " fill="#B9A575" transform="translate(241,130)"/>
<path d="M0 0 C0.66 0.66 1.32 1.32 2 2 C1 3 1 3 -1.9140625 3.0625 C-3.75097656 3.0315625 -3.75097656 3.0315625 -5.625 3 C-10.55599919 2.95974695 -15.16110195 3.07830513 -20 4 C-20.33 3.34 -20.66 2.68 -21 2 C-14.2390528 -0.57559893 -7.16442298 -0.63188166 0 0 Z " fill="#B19969" transform="translate(211,89)"/>
<path d="M0 0 C0.68707555 2.49064888 1 4.37886292 1 7 C0.34 7 -0.32 7 -1 7 C-0.67 7.99 -0.34 8.98 0 10 C-1.28965176 11.37562854 -2.62689293 12.70766393 -4 14 C-4.66 14 -5.32 14 -6 14 C-6.33 14.66 -6.66 15.32 -7 16 C-7.66 16 -8.32 16 -9 16 C-7.62018779 11.58460093 -5.17889697 8.43509301 -2.33984375 4.8671875 C-0.81385317 2.93516371 -0.81385317 2.93516371 0 0 Z " fill="#A8955F" transform="translate(246,268)"/>
<path d="M0 0 C2.58148508 0.35606691 3.82045747 0.83328193 5.75 2.625 C8.05791692 7.01004214 7.29673675 11.32895357 6 15.9375 C5.67 16.948125 5.34 17.95875 5 19 C4.67 19 4.34 19 4 19 C3.40801257 13.65097076 2.85812759 8.39115154 3 3 C2.01 2.67 1.02 2.34 0 2 C0 1.34 0 0.68 0 0 Z " fill="#977C3C" transform="translate(224,101)"/>
<path d="M0 0 C0 3.76275013 -1.29290326 5.64903232 -3 9 C-5.90801859 15.22561726 -6.63595635 21.17104318 -7 28 C-7.33 28 -7.66 28 -8 28 C-8.5707596 18.48734 -8.73126 11.07219719 -3 3 C-2.02883413 1.9719743 -1.03730105 0.96125259 0 0 Z " fill="#B7A77F" transform="translate(180,87)"/>
<path d="M0 0 C0.99 0.495 0.99 0.495 2 1 C2 1.99 2 2.98 2 4 C2.66 4 3.32 4 4 4 C5.47265625 5.6796875 5.47265625 5.6796875 7.0625 7.875 C7.58972656 8.59429687 8.11695313 9.31359375 8.66015625 10.0546875 C10 12 10 12 11 14 C9.35 14.33 7.7 14.66 6 15 C5.67 14.01 5.34 13.02 5 12 C4.34 12 3.68 12 3 12 C2.01 8.04 1.02 4.08 0 0 Z " fill="#B39C6C" transform="translate(301,85)"/>
<path d="M0 0 C3.04453211 1.59191221 6.0311701 3.27148126 9 5 C9 5.66 9 6.32 9 7 C4.92666772 5.67616701 0.9219399 4.23079197 -3.0703125 2.68359375 C-5.02743024 1.99028281 -6.97909355 1.47154484 -9 1 C-9 0.34 -9 -0.32 -9 -1 C-5.06698252 -2.31100583 -3.83060088 -1.56061517 0 0 Z " fill="#A2834F" transform="translate(296,124)"/>
<path d="M0 0 C1.875 0.5625 1.875 0.5625 4 2 C4.74259349 4.31029085 5.411438 6.645752 6 9 C6.66 9.66 7.32 10.32 8 11 C7.625 13.125 7.625 13.125 7 15 C7.99 15.33 8.98 15.66 10 16 C9.34 17.32 8.68 18.64 8 20 C6.66065284 17.04435292 5.32955753 14.0850622 4 11.125 C3.6184375 10.28324219 3.236875 9.44148438 2.84375 8.57421875 C2.4828125 7.76855469 2.121875 6.96289062 1.75 6.1328125 C1.41484375 5.38918457 1.0796875 4.64555664 0.734375 3.87939453 C0 2 0 2 0 0 Z " fill="#AB9C71" transform="translate(230,364)"/>
<path d="M0 0 C0.66 1.32 1.32 2.64 2 4 C1.01 4.495 1.01 4.495 0 5 C-0.33 5.66 -0.66 6.32 -1 7 C-1.66 7 -2.32 7 -3 7 C-2.67 8.98 -2.34 10.96 -2 13 C-2.66 13 -3.32 13 -4 13 C-4.33 13.66 -4.66 14.32 -5 15 C-6.64142963 16.0409066 -8.30712215 17.04504326 -10 18 C-8.47146065 13.72813475 -6.28490519 10.00673137 -3.875 6.1875 C-3.50246094 5.59001953 -3.12992188 4.99253906 -2.74609375 4.37695312 C-1.8342952 2.91573749 -0.91764024 1.45755415 0 0 Z " fill="#AB9766" transform="translate(241,143)"/>
<path d="M0 0 C3.36370321 1.39187719 5.21906331 2.79431396 7 6 C7.1875 9.25 7.1875 9.25 7 12 C3.99853561 10.4992678 2.30054135 9.55814822 0.6875 6.5625 C0 4 0 4 0 0 Z " fill="#A28B4D" transform="translate(281,275)"/>
<path d="M0 0 C0.33 0.66 0.66 1.32 1 2 C-0.25 5.5625 -0.25 5.5625 -2 9 C-2.99 9.33 -3.98 9.66 -5 10 C-5 10.66 -5 11.32 -5 12 C-7.3125 12.625 -7.3125 12.625 -10 13 C-10.99 12.34 -11.98 11.68 -13 11 C-11.96875 10.67 -10.9375 10.34 -9.875 10 C-5.08924504 8.0018742 -2.74620846 4.23499547 0 0 Z " fill="#B19E68" transform="translate(222,129)"/>
<path d="M0 0 C0.33 0 0.66 0 1 0 C0.54775239 5.91492272 -0.1582605 11.35199888 -2 17 C-2.33 17 -2.66 17 -3 17 C-2.979375 16.2575 -2.95875 15.515 -2.9375 14.75 C-2.84973857 12.09767067 -2.84973857 12.09767067 -3.6875 10.125 C-4.20103599 6.63295526 -2.51269537 4.08357133 -1 1 C-0.67 0.67 -0.34 0.34 0 0 Z " fill="#AA9166" transform="translate(271,419)"/>
<path d="M0 0 C3.11999182 1.55999591 3.45116846 4.12779497 4.6875 7.3125 C5.14511719 8.46363281 5.60273438 9.61476562 6.07421875 10.80078125 C6.96030566 13.86282842 7.176686 15.11177073 6 18 C4.5 16.9375 4.5 16.9375 3 15 C2.8125 11.3125 2.8125 11.3125 3 8 C2.34 8 1.68 8 1 8 C0.67 5.36 0.34 2.72 0 0 Z " fill="#8D7741" transform="translate(281,179)"/>
<path d="M0 0 C2 4 4 8 6 12 C2 12 2 12 -0.3125 10.25 C-2 8 -2 8 -1.8125 6 C-1.544375 5.34 -1.27625 4.68 -1 4 C-0.814375 3.2575 -0.62875 2.515 -0.4375 1.75 C-0.293125 1.1725 -0.14875 0.595 0 0 Z " fill="#AA9C7E" transform="translate(179,116)"/>
<path d="M0 0 C1.7074998 1.28062485 3.37373596 2.61767557 5 4 C5 4.66 5 5.32 5 6 C5.639375 6.268125 6.27875 6.53625 6.9375 6.8125 C9 8 9 8 10 11 C8.02 11 6.04 11 4 11 C3.87625 10.360625 3.7525 9.72125 3.625 9.0625 C3.41875 8.381875 3.2125 7.70125 3 7 C2.34 6.67 1.68 6.34 1 6 C0.375 2.9375 0.375 2.9375 0 0 Z " fill="#B5A475" transform="translate(207,21)"/>
<path d="M0 0 C0.99 0.33 1.98 0.66 3 1 C3.69658363 2.65438613 4.36096883 4.32254318 5 6 C6.52007842 7.77277259 6.52007842 7.77277259 8 9 C3.56923077 11.09230769 3.56923077 11.09230769 0.6875 10.625 C0.130625 10.41875 -0.42625 10.2125 -1 10 C-0.649375 9.46375 -0.29875 8.9275 0.0625 8.375 C1.28924249 5.26725237 0.72856431 3.20568297 0 0 Z " fill="#AEA075" transform="translate(337,149)"/>
<path d="M0 0 C0.33 0.66 0.66 1.32 1 2 C1.66 2 2.32 2 3 2 C4.4783226 4.95664519 4.06032783 7.74229737 4 11 C4.66 11 5.32 11 6 11 C6 13.64 6 16.28 6 19 C3.88565935 15.82848903 2.98044063 13.13567139 1.875 9.5 C1.52179688 8.3553125 1.16859375 7.210625 0.8046875 6.03125 C0 3 0 3 0 0 Z " fill="#AE9770" transform="translate(250,412)"/>
<path d="M0 0 C1.32 0.33 2.64 0.66 4 1 C4 1.99 4 2.98 4 4 C5.32 4.33 6.64 4.66 8 5 C8 4.01 8 3.02 8 2 C8.66 2.33 9.32 2.66 10 3 C9.01 5.64 8.02 8.28 7 11 C5.66104368 9.33784732 4.32869858 7.67036393 3 6 C2.4225 5.278125 1.845 4.55625 1.25 3.8125 C0 2 0 2 0 0 Z " fill="#A08E65" transform="translate(274,225)"/>
<path d="M0 0 C0.721875 0.268125 1.44375 0.53625 2.1875 0.8125 C0.1875 2.14583333 -1.8125 3.47916667 -3.8125 4.8125 C-4.38998803 6.77611864 -4.38998803 6.77611864 -4.5 8.9375 C-4.603125 10.21625 -4.70625 11.495 -4.8125 12.8125 C-5.8025 12.1525 -6.7925 11.4925 -7.8125 10.8125 C-8.3125 8 -8.3125 8 -7.8125 4.8125 C-4.02871622 -0.26858108 -4.02871622 -0.26858108 0 0 Z " fill="#B09D63" transform="translate(282.8125,123.1875)"/>
<path d="M0 0 C5.75 1.75 5.75 1.75 8 4 C6 7 6 7 4 9 C0 3.375 0 3.375 0 0 Z " fill="#4F4B4D" transform="translate(4,12)"/>
<path d="M0 0 C0 0.33 0 0.66 0 1 C-0.69867188 1.19335938 -1.39734375 1.38671875 -2.1171875 1.5859375 C-3.48230469 1.97652344 -3.48230469 1.97652344 -4.875 2.375 C-5.77992188 2.63023438 -6.68484375 2.88546875 -7.6171875 3.1484375 C-10.14569726 3.8604315 -10.14569726 3.8604315 -12 6 C-15.125 6.125 -15.125 6.125 -18 6 C-17.34 5.67 -16.68 5.34 -16 5 C-16 4.34 -16 3.68 -16 3 C-10.47239641 0.89424625 -5.93002267 -0.37851209 0 0 Z " fill="#93783C" transform="translate(176,61)"/>
<path d="M0 0 C5.27315333 0.4452885 10.01770224 1.08373163 15 3 C15 3.33 15 3.66 15 4 C10.38 4 5.76 4 1 4 C0.67 2.68 0.34 1.36 0 0 Z " fill="#AF9D6B" transform="translate(211,60)"/>
<path d="M0 0 C1.32 0 2.64 0 4 0 C5.65 2.97 7.3 5.94 9 9 C8.34 9.66 7.68 10.32 7 11 C5.82750647 9.54634731 4.66216184 8.08692581 3.5 6.625 C2.52546875 5.40683594 2.52546875 5.40683594 1.53125 4.1640625 C0 2 0 2 0 0 Z " fill="#AD9666" transform="translate(209,41)"/>
<path d="M0 0 C0.5534764 2.07553648 1 3.84365964 1 6 C-0.94415395 7.94415395 -2.66013049 9.55478648 -5 11 C-7.25 10.6875 -7.25 10.6875 -9 10 C-8.67 9.34 -8.34 8.68 -8 8 C-7.01 8 -6.02 8 -5 8 C-4.01 6.02 -3.02 4.04 -2 2 C-1.34 2 -0.68 2 0 2 C0 1.34 0 0.68 0 0 Z " fill="#4D484A" transform="translate(206,198)"/>
<path d="M0 0 C2.64 0 5.28 0 8 0 C8 1.65 8 3.3 8 5 C7.04287109 5.07347656 7.04287109 5.07347656 6.06640625 5.1484375 C5.24011719 5.22320312 4.41382813 5.29796875 3.5625 5.375 C2.73878906 5.44460937 1.91507813 5.51421875 1.06640625 5.5859375 C0.38449219 5.72257812 -0.29742187 5.85921875 -1 6 C-1.33 6.66 -1.66 7.32 -2 8 C-2.66 7.34 -3.32 6.68 -4 6 C-0.62902617 4.50178941 1.20442119 4 5 4 C5 3.34 5 2.68 5 2 C3.35 1.67 1.7 1.34 0 1 C0 0.67 0 0.34 0 0 Z " fill="#B9A582" transform="translate(191,76)"/>
<path d="M0 0 C0.99 0.33 1.98 0.66 3 1 C3.02686553 2.97909398 3.04633375 4.95828971 3.0625 6.9375 C3.07410156 8.03964844 3.08570313 9.14179687 3.09765625 10.27734375 C3 13 3 13 2 14 C0.33382885 14.04063832 -1.33388095 14.042721 -3 14 C-1.68 13.01 -0.36 12.02 1 11 C0.67 10.01 0.34 9.02 0 8 C-0.12781786 5.32605036 -0.04391871 2.67904143 0 0 Z " fill="#B19D71" transform="translate(268,75)"/>
<path d="M0 0 C1.32 0.33 2.64 0.66 4 1 C4.82638376 3.89234315 5 5.88742431 5 9 C4.34 9 3.68 9 3 9 C3 8.34 3 7.68 3 7 C2.34 7 1.68 7 1 7 C0.67 4.69 0.34 2.38 0 0 Z " fill="#9A7A37" transform="translate(250,407)"/>
<path d="M0 0 C0.99 0 1.98 0 3 0 C1.50829734 4.9723422 -0.60457417 9.41845739 -3 14 C-3.33 14 -3.66 14 -4 14 C-4 12.02 -4 10.04 -4 8 C-3.01 7.67 -2.02 7.34 -1 7 C-1.020625 6.030625 -1.04125 5.06125 -1.0625 4.0625 C-1 1 -1 1 0 0 Z " fill="#B3A075" transform="translate(310,329)"/>
<path d="M0 0 C0.68359375 1.703125 0.68359375 1.703125 1 4 C-0.21484375 6.359375 -0.21484375 6.359375 -1.9375 8.75 C-2.50339844 9.54921875 -3.06929688 10.3484375 -3.65234375 11.171875 C-4.09707031 11.77515625 -4.54179687 12.3784375 -5 13 C-5.68707555 10.50935112 -6 8.62113708 -6 6 C-4.68 6 -3.36 6 -2 6 C-2 4.35 -2 2.7 -2 1 C-1.34 0.67 -0.68 0.34 0 0 Z " fill="#B19B64" transform="translate(260,208)"/>
<path d="M0 0 C4.50884026 2.31883213 6.93906776 5.06451569 10 9 C8.35 9 6.7 9 5 9 C5 8.01 5 7.02 5 6 C4.01 6 3.02 6 2 6 C2 5.01 2 4.02 2 3 C1.34 3 0.68 3 0 3 C0 2.01 0 1.02 0 0 Z " fill="#A69562" transform="translate(288,72)"/>
<path d="M0 0 C1.41687119 4.25061356 0.19320039 6.71851625 -1 11 C-1.66 9.68 -2.32 8.36 -3 7 C-3.99 7.33 -4.98 7.66 -6 8 C-5.67 6.35 -5.34 4.7 -5 3 C-4.360625 2.87625 -3.72125 2.7525 -3.0625 2.625 C-2.0415625 2.315625 -2.0415625 2.315625 -1 2 C-0.67 1.34 -0.34 0.68 0 0 Z " fill="#B49864" transform="translate(267,436)"/>
<path d="M0 0 C3.21365891 1.10815825 3.9914224 1.98529554 5.75 5 C7 8 7 8 7 10 C6.01 9.67 5.02 9.34 4 9 C2.8125 5.9375 2.8125 5.9375 2 3 C0.68 3.33 -0.64 3.66 -2 4 C-1.34 2.68 -0.68 1.36 0 0 Z " fill="#AFA179" transform="translate(250,263)"/>
<path d="M0 0 C0.33 1.32 0.66 2.64 1 4 C0.01 4.33 -0.98 4.66 -2 5 C-2 6.65 -2 8.3 -2 10 C-4.475 9.01 -4.475 9.01 -7 8 C-6.21366078 6.85050412 -5.42073742 5.70551011 -4.625 4.5625 C-4.18414062 3.92441406 -3.74328125 3.28632813 -3.2890625 2.62890625 C-2 1 -2 1 0 0 Z " fill="#95793A" transform="translate(287,377)"/>
<path d="M0 0 C2.33524782 2.25740623 4.18705073 4.2805761 6 7 C6 7.99 6 8.98 6 10 C4.68 10 3.36 10 2 10 C0.68373308 6.38026598 0 3.90432869 0 0 Z " fill="#A99560" transform="translate(297,167)"/>
<path d="M0 0 C0 3.57575896 -1.08840607 5.05295935 -3 8 C-3.66 6.68 -4.32 5.36 -5 4 C-3.35 2.68 -1.7 1.36 0 0 Z M-6 7 C-5.34 7.33 -4.68 7.66 -4 8 C-4.33 8.99 -4.66 9.98 -5 11 C-5.66 10.67 -6.32 10.34 -7 10 C-6.67 9.01 -6.34 8.02 -6 7 Z M-9 11 C-8.01 11.495 -8.01 11.495 -7 12 C-7.66 12.66 -8.32 13.32 -9 14 C-9 13.01 -9 12.02 -9 11 Z " fill="#987D3C" transform="translate(247,139)"/>
<path d="M0 0 C0.99 0.33 1.98 0.66 3 1 C3 1.66 3 2.32 3 3 C3.99 3 4.98 3 6 3 C6 3.99 6 4.98 6 6 C6.66 6 7.32 6 8 6 C8.33 6.99 8.66 7.98 9 9 C6 9 6 9 4.39453125 7.5390625 C3.61142578 6.59160156 3.61142578 6.59160156 2.8125 5.625 C2.28269531 4.99851563 1.75289063 4.37203125 1.20703125 3.7265625 C0 2 0 2 0 0 Z " fill="#907B42" transform="translate(285,179)"/>
<path d="M0 0 C0.99 1.485 0.99 1.485 2 3 C2.66 3 3.32 3 4 3 C5.125 9.75 5.125 9.75 4 12 C-0.57142857 4.71428571 -0.57142857 4.71428571 0 0 Z " fill="#B29E6C" transform="translate(219,155)"/>
<path d="M0 0 C0.99 0.33 1.98 0.66 3 1 C3.33 3.31 3.66 5.62 4 8 C6.31 8.33 8.62 8.66 11 9 C11 9.33 11 9.66 11 10 C8.03 10 5.06 10 2 10 C1.34 6.7 0.68 3.4 0 0 Z " fill="#B9AA84" transform="translate(309,135)"/>
<path d="M0 0 C1.65 0.99 3.3 1.98 5 3 C5 2.01 5 1.02 5 0 C5.66 0 6.32 0 7 0 C6.71125 0.70125 6.4225 1.4025 6.125 2.125 C4.97866412 5.05452503 3.97374346 8.00921653 3 11 C2.67 11 2.34 11 2 11 C0.80712589 7.12315913 0 4.08378077 0 0 Z " fill="#B49E6E" transform="translate(177,97)"/>
<path d="M0 0 C1.2065625 0.0309375 1.2065625 0.0309375 2.4375 0.0625 C2.1075 2.0425 1.7775 4.0225 1.4375 6.0625 C0.1175 6.3925 -1.2025 6.7225 -2.5625 7.0625 C-2.94383299 5.0710944 -3.27575582 3.06970923 -3.5625 1.0625 C-2.5625 0.0625 -2.5625 0.0625 0 0 Z " fill="#947836" transform="translate(256.5625,43.9375)"/>
<path d="M0 0 C0.66 0 1.32 0 2 0 C4.4294516 3.6441774 4.16179575 5.71241272 4 10 C1 8 1 8 0.48828125 6.0546875 C0.32552083 4.03645833 0.16276042 2.01822917 0 0 Z " fill="#A08C5C" transform="translate(243,391)"/>
<path d="M0 0 C2.4375 0.6875 2.4375 0.6875 5 2 C5.75 4.5 5.75 4.5 6 7 C6.33 7.66 6.66 8.32 7 9 C6.34 9.66 5.68 10.32 5 11 C4.16151196 9.54462432 3.32936066 8.08559627 2.5 6.625 C1.80390625 5.40683594 1.80390625 5.40683594 1.09375 4.1640625 C0 2 0 2 0 0 Z " fill="#AE9C6F" transform="translate(215,334)"/>
<path d="M0 0 C0.93423645 3.01031744 1.04449911 3.86650268 0 7 C-2.4375 9.6875 -2.4375 9.6875 -5 12 C-5.66 12 -6.32 12 -7 12 C-6.690625 11.401875 -6.38125 10.80375 -6.0625 10.1875 C-4.89790296 7.91043228 -4.89790296 7.91043228 -4 5 C-3.34 5 -2.68 5 -2 5 C-1.34 3.35 -0.68 1.7 0 0 Z " fill="#4B4848" transform="translate(334,195)"/>
<path d="M0 0 C1.8125 0.5 1.8125 0.5 4 2 C5.26152609 4.5863924 6.15643045 7.25200829 7 10 C6.34 10.66 5.68 11.32 5 12 C4.16180842 10.37750059 3.3295884 8.75191503 2.5 7.125 C2.0359375 6.22007812 1.571875 5.31515625 1.09375 4.3828125 C0 2 0 2 0 0 Z " fill="#AE9F70" transform="translate(224,352)"/>
<path d="M0 0 C1.65 0.33 3.3 0.66 5 1 C4.67 1.99 4.34 2.98 4 4 C3.01 3.67 2.02 3.34 1 3 C1 4.65 1 6.3 1 8 C0.34 8 -0.32 8 -1 8 C-1.625 5.6875 -1.625 5.6875 -2 3 C-1.34 2.01 -0.68 1.02 0 0 Z " fill="#9D7F3E" transform="translate(299,107)"/>
<path d="M0 0 C2.97 0.495 2.97 0.495 6 1 C6.33 3.97 6.66 6.94 7 10 C4.3513141 6.80331012 2.06007659 3.60513403 0 0 Z " fill="#B9A377" transform="translate(262,208)"/>
<path d="M0 0 C1.32 0.33 2.64 0.66 4 1 C3.67 1.99 3.34 2.98 3 4 C0.03 4 -2.94 4 -6 4 C-6 3.34 -6 2.68 -6 2 C-4.02 2 -2.04 2 0 2 C0 1.34 0 0.68 0 0 Z " fill="#8E7E52" transform="translate(312,193)"/>
<path d="M0 0 C0.33 0 0.66 0 1 0 C1.33 2.64 1.66 5.28 2 8 C2.66 6.68 3.32 5.36 4 4 C4 6.31 4 8.62 4 11 C2.68 11 1.36 11 0 11 C0 7.37 0 3.74 0 0 Z " fill="#987E46" transform="translate(173,104)"/>
<path d="M0 0 C0.33 1.32 0.66 2.64 1 4 C-2.51187196 6.40814077 -4.72656908 7.36629408 -9 7 C-8.67 6.01 -8.34 5.02 -8 4 C-4.535 3.505 -4.535 3.505 -1 3 C-0.67 2.01 -0.34 1.02 0 0 Z " fill="#927740" transform="translate(269,82)"/>
<path d="M0 0 C0.99 0 1.98 0 3 0 C3 1.65 3 3.3 3 5 C1.02 5.33 -0.96 5.66 -3 6 C-2 4 -1 2 0 0 Z " fill="#242022" transform="translate(480,113)"/>
<path d="M0 0 C4.31392226 0.4793247 6.16569547 1.7457985 9 5 C8.67 5.66 8.34 6.32 8 7 C3.8575633 5.61918777 2.67796901 3.40174442 0 0 Z " fill="#B79D72" transform="translate(303,111)"/>
<path d="M0 0 C0.99 0.33 1.98 0.66 3 1 C4.2063366 6.22745859 3.75612577 10.76528314 3 16 C2.67 16 2.34 16 2 16 C1.93941406 15.18015625 1.87882813 14.3603125 1.81640625 13.515625 C1.73261719 12.43796875 1.64882812 11.3603125 1.5625 10.25 C1.48128906 9.18265625 1.40007812 8.1153125 1.31640625 7.015625 C1.05909227 4.56320038 0.68187782 2.36078709 0 0 Z " fill="#C7BB87" transform="translate(224,103)"/>
<path d="M0 0 C3.465 1.98 3.465 1.98 7 4 C4.64561267 5.42944945 3.51967567 6.08661261 0.75 5.625 C0.1725 5.41875 -0.405 5.2125 -1 5 C-0.67 3.35 -0.34 1.7 0 0 Z " fill="#A6915A" transform="translate(235,45)"/>
<path d="M0 0 C3.65316671 1.24976756 4.78065836 1.67098753 7 5 C4.36 5 1.72 5 -1 5 C-0.67 3.35 -0.34 1.7 0 0 Z " fill="#B09B6B" transform="translate(227,40)"/>
<path d="M0 0 C0.66 0 1.32 0 2 0 C1.55090939 1.48199902 1.09043436 2.96055236 0.625 4.4375 C0.36976563 5.26121094 0.11453125 6.08492188 -0.1484375 6.93359375 C-1 9 -1 9 -3 10 C-3.125 4.25 -3.125 4.25 -2 2 C-1.34 2 -0.68 2 0 2 C0 1.34 0 0.68 0 0 Z " fill="#A99A68" transform="translate(299,353)"/>
<path d="M0 0 C4.51135667 2.19471406 6.06273348 4.41173718 8 9 C7.34 9 6.68 9 6 9 C6 8.34 6 7.68 6 7 C5.38125 6.773125 4.7625 6.54625 4.125 6.3125 C1.38589791 4.62070165 0.94975528 3.00755839 0 0 Z " fill="#AE9E6B" transform="translate(305,310)"/>
<path d="M0 0 C1 2 1 2 0.0625 5.125 C-0.288125 6.07375 -0.63875 7.0225 -1 8 C-1.99 8 -2.98 8 -4 8 C-3.50168276 4.31245243 -2.89932357 2.39509338 0 0 Z " fill="#A08950" transform="translate(238,283)"/>
<path d="M0 0 C0 3.2388234 -0.19064577 4.36821203 -2 7 C-5.125 8.75 -5.125 8.75 -8 10 C-7.25 7.5625 -7.25 7.5625 -6 5 C-4.67696283 4.6278958 -3.34262065 4.29369827 -2 4 C-0.71563266 2.0162233 -0.71563266 2.0162233 0 0 Z " fill="#A99455" transform="translate(271,271)"/>
<path d="M0 0 C1.58294782 -0.05437607 3.16644256 -0.09296271 4.75 -0.125 C5.63171875 -0.14820313 6.5134375 -0.17140625 7.421875 -0.1953125 C10.1135858 0.00860498 11.69904974 0.63448279 14 2 C14 2.66 14 3.32 14 4 C9.38 3.01 4.76 2.02 0 1 C0 0.67 0 0.34 0 0 Z " fill="#B9A472" transform="translate(323,144)"/>
<path d="M0 0 C2.0625 0.4375 2.0625 0.4375 4 1 C2.90716423 2.03295436 1.80029421 3.05107835 0.6875 4.0625 C0.07261719 4.63097656 -0.54226562 5.19945312 -1.17578125 5.78515625 C-1.77777344 6.18605469 -2.37976563 6.58695313 -3 7 C-3.99 6.67 -4.98 6.34 -6 6 C-4 4 -2 2 0 0 Z " fill="#A89261" transform="translate(233,132)"/>
<path d="M0 0 C0.33 0 0.66 0 1 0 C2.31626692 3.61973402 3 6.09567131 3 10 C1.02 10.33 -0.96 10.66 -3 11 C-3 10.01 -3 9.02 -3 8 C-1.68 8.33 -0.36 8.66 1 9 C0.67 8.34 0.34 7.68 0 7 C-0.04022391 4.6670134 -0.04320247 2.33293334 0 0 Z " fill="#B2A173" transform="translate(253,46)"/>
<path d="M0 0 C2.88575819 0.39803561 3.82189513 0.79009069 5.75 3.0625 C6.1625 3.701875 6.575 4.34125 7 5 C6.67 5.66 6.34 6.32 6 7 C4.68 6.34 3.36 5.68 2 5 C2 4.01 2 3.02 2 2 C1.34 2 0.68 2 0 2 C0 1.34 0 0.68 0 0 Z " fill="#A58F57" transform="translate(216,32)"/>
<path d="M0 0 C3.7910119 1.44950455 7.3874638 3.15172566 11 5 C10.01 5.66 9.02 6.32 8 7 C8 6.34 8 5.68 8 5 C7.05125 4.9175 6.1025 4.835 5.125 4.75 C2 4 2 4 0.625 1.9375 C0.41875 1.298125 0.2125 0.65875 0 0 Z " fill="#B6A272" transform="translate(270,94)"/>
<path d="M0 0 C2.475 0.495 2.475 0.495 5 1 C5.66 3.31 6.32 5.62 7 8 C6.34 8.66 5.68 9.32 5 10 C3.33333333 6.66666667 1.66666667 3.33333333 0 0 Z " fill="#B69E6D" transform="translate(276,85)"/>
<path d="M0 0 C0.66 0 1.32 0 2 0 C2.86516528 4.49885947 3.30903272 7.01647791 1 11 C0.63890458 9.35567294 0.28629924 7.7094792 -0.0625 6.0625 C-0.25972656 5.14597656 -0.45695312 4.22945313 -0.66015625 3.28515625 C-0.77230469 2.53105469 -0.88445312 1.77695312 -1 1 C-0.67 0.67 -0.34 0.34 0 0 Z " fill="#B2A174" transform="translate(257,432)"/>
<path d="M0 0 C0.68707555 2.49064888 1 4.37886292 1 7 C-0.98 7.99 -2.96 8.98 -5 10 C-3.66511872 6.40608886 -2.03977277 3.24509304 0 0 Z " fill="#B4A578" transform="translate(246,268)"/>
<path d="M0 0 C2.6486859 3.19668988 4.93992341 6.39486597 7 10 C5.35 10 3.7 10 2 10 C1.33333333 6.66666667 0.66666667 3.33333333 0 0 Z " fill="#AE9F6F" transform="translate(339,124)"/>
<path d="M0 0 C6.625 0.75 6.625 0.75 10 3 C10 3.66 10 4.32 10 5 C6.08788267 3.84414715 3.1254959 2.64465038 0 0 Z " fill="#B29871" transform="translate(295,126)"/>
<path d="M0 0 C1.32 0 2.64 0 4 0 C4.33 1.32 4.66 2.64 5 4 C4 4 3 4 2 4 C2 4.66 2 5.32 2 6 C1.01 6.33 0.02 6.66 -1 7 C-0.67 4.69 -0.34 2.38 0 0 Z " fill="#977C38" transform="translate(203,21)"/>
<path d="M0 0 C2 1.375 2 1.375 4 3 C4 3.66 4 4.32 4 5 C3.01 5 2.02 5 1 5 C0.67 6.32 0.34 7.64 0 9 C-0.87890625 2.84765625 -0.87890625 2.84765625 -1 1 C-0.67 0.67 -0.34 0.34 0 0 Z " fill="#AFA68F" transform="translate(199,12)"/>
<path d="M0 0 C-0.99 2.97 -1.98 5.94 -3 9 C-3.33 9 -3.66 9 -4 9 C-4 6.36 -4 3.72 -4 1 C-2 0 -2 0 0 0 Z " fill="#B19F72" transform="translate(292,372)"/>
<path d="M0 0 C0.66 1.32 1.32 2.64 2 4 C0.02 4.99 -1.96 5.98 -4 7 C-2.92598892 4.08482708 -2.22189824 2.22189824 0 0 Z " fill="#B1A26D" transform="translate(233,289)"/>
<path d="M0 0 C1.32 0.33 2.64 0.66 4 1 C4.33 3.64 4.66 6.28 5 9 C2.67527795 6.14693203 1.2491742 3.45925163 0 0 Z " fill="#877242" transform="translate(232,176)"/>
<path d="M0 0 C0.33 0.66 0.66 1.32 1 2 C1.99 1.67 2.98 1.34 4 1 C4.99 1.33 5.98 1.66 7 2 C7 2.66 7 3.32 7 4 C4.36 4 1.72 4 -1 4 C-0.67 2.68 -0.34 1.36 0 0 Z " fill="#94783B" transform="translate(313,140)"/>
<path d="M0 0 C0.66 0.99 1.32 1.98 2 3 C1.25 4.9375 1.25 4.9375 0 7 C-2.125 7.75 -2.125 7.75 -4 8 C-2.87548273 5.0280615 -1.77706209 2.66559313 0 0 Z " fill="#4B4A4A" transform="translate(395,103)"/>
<path d="M0 0 C0.33 0 0.66 0 1 0 C1 2.97 1 5.94 1 9 C0.01 9 -0.98 9 -2 9 C-2.66 8.01 -3.32 7.02 -4 6 C-3.01 6 -2.02 6 -1 6 C-0.67 4.02 -0.34 2.04 0 0 Z " fill="#6E696A" transform="translate(94,444)"/>
<path d="M0 0 C0.33 0 0.66 0 1 0 C1.33 2.31 1.66 4.62 2 7 C1.01 7 0.02 7 -1 7 C-1.625 4.625 -1.625 4.625 -2 2 C-1.34 1.34 -0.68 0.68 0 0 Z " fill="#A68B50" transform="translate(284,91)"/>
<path d="M0 0 C1.70884005 1.62339805 3.37446717 3.29319053 5 5 C5 5.66 5 6.32 5 7 C3.68 6.67 2.36 6.34 1 6 C0.67 4.02 0.34 2.04 0 0 Z " fill="#AF9B6F" transform="translate(264,51)"/>
<path d="M0 0 C0.99 0.66 1.98 1.32 3 2 C1.69593116 4.01920337 0.36176581 6.01924973 -1 8 C-1.33 8 -1.66 8 -2 8 C-2.20086443 4.28400809 -2.1519437 3.22791555 0 0 Z " fill="#514E4F" transform="translate(366,336)"/>
<path d="M0 0 C1.125 1.625 1.125 1.625 2 4 C1.25 7.1875 1.25 7.1875 0 10 C-0.99 10.495 -0.99 10.495 -2 11 C-1.40049704 7.31733897 -0.75241109 3.65456815 0 0 Z " fill="#AB9A89" transform="translate(226,161)"/>
<path d="M0 0 C1.0625 1.875 1.0625 1.875 2 4 C1.67 4.66 1.34 5.32 1 6 C0.34 6 -0.32 6 -1 6 C-1 5.34 -1 4.68 -1 4 C-1.66 3.67 -2.32 3.34 -3 3 C-2.01 2.01 -1.02 1.02 0 0 Z " fill="#977D30" transform="translate(284,149)"/>
<path d="M0 0 C0 0.99 0 1.98 0 3 C-2.31 3.33 -4.62 3.66 -7 4 C-4.83989616 0.75984424 -3.8842653 0 0 0 Z " fill="#9E7D31" transform="translate(171,63)"/>
<path d="M0 0 C1.0625 1.8125 1.0625 1.8125 2 4 C1.67 4.99 1.34 5.98 1 7 C-0.32 5.68 -1.64 4.36 -3 3 C-2.34 3 -1.68 3 -1 3 C-0.67 2.01 -0.34 1.02 0 0 Z " fill="#B29C6C" transform="translate(220,49)"/>
</svg>
